<svg xmlns="http://www.w3.org/2000/svg" xmlns:xlink="http://www.w3.org/1999/xlink" width="59.97mm" height="17.22mm" viewBox="0 0 170 48.81"><defs><style>.a{fill:url(#a);}.b{fill:url(#b);}.c{fill:#7bb32c;}.d{fill:#4071b5;}.e{fill:#de3264;}.f{fill:#ffd002;}.g{fill:#3e6fb4;}.h{fill:none;}.i{fill:#ffd100;}.j{fill:#3e6eb4;}.k,.l{fill:#fff;}.l{stroke:#fff;stroke-width:0.31px;}.m{fill:#7bb326;}.n{fill:#df3463;}.o{fill:#e7327e;}.p{fill:#878787;}</style><linearGradient id="a" x1="456.59" y1="429.33" x2="547.43" y2="456.47" gradientTransform="matrix(-0.63, 0.03, -0.02, -1, 421.01, 457.89)" gradientUnits="userSpaceOnUse"><stop offset="0" stop-color="#b2b2b2"/><stop offset="0.13" stop-color="#d2d2d2"/><stop offset="0.27" stop-color="#ebebeb"/><stop offset="0.4" stop-color="#fafafa"/><stop offset="0.5" stop-color="#fff"/></linearGradient><linearGradient id="b" x1="436.3" y1="50.7" x2="432.06" y2="8.06" gradientTransform="matrix(-0.63, 0, 0, 1, 408.32, 0)" gradientUnits="userSpaceOnUse"><stop offset="0" stop-color="#b7b6b6"/><stop offset="0.03" stop-color="#bfbebe"/><stop offset="0.13" stop-color="#d7d6d6"/><stop offset="0.25" stop-color="#e9e8e8"/><stop offset="0.4" stop-color="#f5f5f5"/><stop offset="0.58" stop-color="#fdfdfd"/><stop offset="0.97" stop-color="#fff"/></linearGradient></defs><title>brussels</title><path class="a" d="M43.76,2.36,159.31,13.75c5,.63,6.14,3.26,6.73,5l4,12.05-69,18S9.51,31.69,5.64,30.93s-10-3-1-8.66C14.26,16,27.71,7.13,30.15,5.57,34,3.09,36.33,1.58,43.76,2.36Z"/><path class="b" d="M170,30.83s-7.4-9.17-15.47-18.32c-12.12-15.55-19-20.06-34.18,6.8C110.22,36,101,48.81,101,48.81Z"/><rect class="c" x="48.84" y="24.83" width="18.96" height="0.62"/><rect class="d" x="29.88" y="24.83" width="18.96" height="0.62"/><rect class="e" x="86.76" y="24.83" width="18.96" height="0.62"/><rect class="f" x="67.8" y="24.83" width="18.96" height="0.62"/><path class="g" d="M41.38,21.75h-5A1.41,1.41,0,0,1,35,20.35V11.44A1.41,1.41,0,0,1,36.42,10h4.76c2.23,0,3.37,1.42,3.37,3a2.6,2.6,0,0,1-2,2.69,2.84,2.84,0,0,1,2.25,2.88A3.09,3.09,0,0,1,41.38,21.75Zm-.74-9.57H37.51v2.55h3.13A1.25,1.25,0,0,0,42,13.46,1.26,1.26,0,0,0,40.64,12.18Zm.09,4.69H37.51v2.72h3.21c.95,0,1.51-.51,1.51-1.35A1.37,1.37,0,0,0,40.73,16.87Z"/><path class="g" d="M50.58,15.25a2.55,2.55,0,0,0-1.74.9v4.6a1.1,1.1,0,0,1-1.09,1.11h0a1.1,1.1,0,0,1-1.11-1.11v-6.5a1.11,1.11,0,0,1,1.14-1.09,1.09,1.09,0,0,1,1.09,1.09v.18a2.43,2.43,0,0,1,1.83-1.23.89.89,0,0,1,1,.91A1.13,1.13,0,0,1,50.58,15.25Z"/><path class="g" d="M59.77,21.86a1.1,1.1,0,0,1-1.11-1.11v-.07a4,4,0,0,1-3,1.28,2.43,2.43,0,0,1-2.74-2.67v-5a1.11,1.11,0,0,1,1.14-1.09,1.1,1.1,0,0,1,1.09,1.09v4.16A1.36,1.36,0,0,0,56.73,20a2.5,2.5,0,0,0,1.93-1V14.25a1.11,1.11,0,0,1,1.14-1.09,1.09,1.09,0,0,1,1.09,1.09v6.5A1.11,1.11,0,0,1,59.77,21.86Z"/><path class="g" d="M66.17,22c-1.11,0-2.88-.37-3.41-1.12a.77.77,0,0,1-.16-.47,1,1,0,0,1,.93-.93.85.85,0,0,1,.46.12,4.92,4.92,0,0,0,2.28.69c1,0,1.42-.39,1.42-.91,0-1.41-5-.26-5-3.6,0-1.42,1.25-2.67,3.48-2.67,1.11,0,2.62.35,3.09,1a.77.77,0,0,1,.14.44.88.88,0,0,1-1.3.74,3.89,3.89,0,0,0-1.92-.51c-.81,0-1.33.37-1.33.84,0,1.26,5,.21,5,3.64C69.84,20.79,68.52,22,66.17,22Z"/><path class="g" d="M74.55,22c-1.11,0-2.88-.37-3.41-1.12a.77.77,0,0,1-.16-.47,1,1,0,0,1,.93-.93.85.85,0,0,1,.46.12,4.92,4.92,0,0,0,2.28.69c1,0,1.42-.39,1.42-.91,0-1.41-5-.26-5-3.6,0-1.42,1.25-2.67,3.48-2.67,1.11,0,2.62.35,3.09,1a.77.77,0,0,1,.14.44.88.88,0,0,1-1.3.74,3.89,3.89,0,0,0-1.91-.51c-.81,0-1.34.37-1.34.84,0,1.26,5,.21,5,3.64C78.22,20.79,76.9,22,74.55,22Z"/><path class="g" d="M86.9,18.22H81.66a2.29,2.29,0,0,0,2.44,2,3.77,3.77,0,0,0,1.65-.42,1,1,0,0,1,.44-.11.93.93,0,0,1,.95.9c0,1-2.16,1.41-3.29,1.41a4.3,4.3,0,0,1-4.53-4.46,4.32,4.32,0,0,1,4.39-4.44,4.05,4.05,0,0,1,4,2.86,4.49,4.49,0,0,1,.25,1.28A1,1,0,0,1,86.9,18.22Zm-3.18-3.39a2,2,0,0,0-2.09,1.88h4.18A2,2,0,0,0,83.72,14.83Z"/><path class="g" d="M90.69,21.86a1.1,1.1,0,0,1-1.11-1.11V11a1.11,1.11,0,0,1,1.14-1.09A1.1,1.1,0,0,1,91.82,11v9.73A1.11,1.11,0,0,1,90.69,21.86Z"/><path class="g" d="M97.09,22c-1.11,0-2.88-.37-3.41-1.12a.77.77,0,0,1-.16-.47,1,1,0,0,1,.93-.93.85.85,0,0,1,.46.12,4.92,4.92,0,0,0,2.28.69c1,0,1.42-.39,1.42-.91,0-1.41-5-.26-5-3.6,0-1.42,1.25-2.67,3.48-2.67,1.11,0,2.62.35,3.09,1a.77.77,0,0,1,.14.44.88.88,0,0,1-1.3.74,3.89,3.89,0,0,0-1.92-.51c-.81,0-1.33.37-1.33.84,0,1.26,5,.21,5,3.64C100.76,20.79,99.44,22,97.09,22Z"/><rect class="h" x="132.76" y="11.09" width="13.63" height="13.62"/><rect class="i" x="132.76" y="17.91" width="6.81" height="6.81"/><rect class="j" x="132.76" y="11.09" width="6.83" height="6.81"/><path class="k" d="M134.25,14.25c.46-.08,1.32.66,1.28,1.12,0,.78-1.39,1.28-2,.93a.92.92,0,0,1,.08-1.7c.77-.31,2.17.19,1.32,1.16a1,1,0,0,1-1.74-.89c.23-1.16,2.4-.89,2,.43-.31,1-1.7,1.16-1.86,0-.23-1.47,2.05-1.43,1.82-.19-.15.89-2.05,1.55-2.13.31s2.28-1.08,1.82.08c-.35.85-1.63.85-1.67-.12,0-1.63,2.4-.93,2.05.27-.31,1-2.25.85-2.44-.15-.35-1.55,2.25-1.63,2.4-.47.12,1-1.82,1.51-2.4.85-1.16-1.36,1.32-2.25,2.17-1.12,1.32,1.74-3.21,1.86-1.59,0,.47-.54,1.67-.54,1.86.27s-1,1.43-1.63,1c-1.78-1.28,2.75-2.13,1.59-.27-.35.5-1.55.74-1.86.08s.7-1.32,1.36-1.16c2.25.58-1.28,2.36-1.51,1-.12-.74,1.39-1.09,1.78-.58s-.5,1.12-1,.93-.74-.66-.16-1c.39-.23,1.39,0,.93.5-.19.19-1.32.39-1.28-.08s1-.27,1.2-.12a.94.94,0,0,1-.85,0,.75.75,0,0,1,.31-.08c-.08,0-.35,0-.23,0"/><path class="k" d="M134.25,14.67a1.21,1.21,0,0,1,.83.36c.11.09.26.38.35.42s.16-.35,0-.25-.13.22-.2.29a1.61,1.61,0,0,1-1.71.37c-.19-.1-.26-.27-.41-.42s-.1.14,0,0a1.67,1.67,0,0,1,.16-.23,1.23,1.23,0,0,1,.94-.31,1.31,1.31,0,0,1,.75.25s.2.19.17.19c-.19,0,.27-.54,0-.27s-.25.34-.47.44a1,1,0,0,1-.89,0,1,1,0,0,1-.34-.28,2,2,0,0,0-.14-.24q-.06-.19,0,.18l0-.09c.21-.18.25-.37.54-.47a1.28,1.28,0,0,1,.76,0,1.26,1.26,0,0,1,.56.4.63.63,0,0,1,.05.11v-.25l0,.11a2.09,2.09,0,0,1-.37.46,1.06,1.06,0,0,1-.71.22.93.93,0,0,1-.67-.46c0,.07,0,0,0,0a.72.72,0,0,1,.12-.19.87.87,0,0,1,.25-.2,1.11,1.11,0,0,1,.63-.12.93.93,0,0,1,.56.24c.13.13.12.36.16,0s0-.08-.05,0-.1.17-.18.25a1.49,1.49,0,0,1-1.43.47,1,1,0,0,1-.27-.18s-.16-.25-.1-.06,0,.05,0,0c.22-.17.29-.35.59-.41a1.24,1.24,0,0,1,.61,0,1,1,0,0,1,.28.13c.08.05.16.22.23.25l0,.07,0-.36s-.15.26-.18.28a1,1,0,0,1-.36.25.88.88,0,0,1-.78,0c-.09-.06-.27-.33-.27-.2a.57.57,0,0,1,.19-.3.89.89,0,0,1,.63-.22,1.37,1.37,0,0,1,.62.16,1.28,1.28,0,0,1,.25.17c.08.07.19.32.26.34s.07-.2,0-.15-.11.17-.17.23a1,1,0,0,1-.29.19,1.55,1.55,0,0,1-.9.09,1.45,1.45,0,0,1-.71-.32,1.83,1.83,0,0,1-.26-.39s-.06.23,0,.13a1.47,1.47,0,0,1,.14-.23,1.43,1.43,0,0,1,1.28-.38,1.35,1.35,0,0,1,.59.22c.11.08.16.19.25.27s0,.11,0,.11q.05-.47,0-.26a.68.68,0,0,1-.12.18,1.86,1.86,0,0,1-1.55.52,1,1,0,0,1-.64-.28,1.51,1.51,0,0,0-.19-.29l0,0q-.08-.22,0,.27s.18-.29.23-.33a1.66,1.66,0,0,1,1.51-.3,1.29,1.29,0,0,1,.67.44c0,.05.14.29.19.32-.36-.23.25-.5-.07-.22a1.53,1.53,0,0,1-1.84.15s-.12-.16-.14-.16c-.19,0,.13.32,0,.39,0,0,0-.11.06-.14.21-.24.29-.49.61-.63a1.33,1.33,0,0,1,.9-.07A.92.92,0,0,1,135,15c.07.06.12.21.19.24s.06.06,0-.23l-.05.1c-.14.07-.26.3-.42.39a1.3,1.3,0,0,1-.39.15.91.91,0,0,1-.84-.24c-.07-.06-.13-.18-.2-.23s0-.44,0,.2c0,.79,0,.23,0,.21s.24-.25.35-.31a2,2,0,0,1,1-.23,1.14,1.14,0,0,1,.44.09c.06,0,.11.09.17.11s0,.06.05.07l0,.08,0-.44s-.19.36-.2.37a1.06,1.06,0,0,1-.31.23,1.47,1.47,0,0,1-1,.15.78.78,0,0,1-.34-.16c-.21-.18,0-.24-.17-.06s.08,0,.09,0a1.54,1.54,0,0,1,.87-.44,1.4,1.4,0,0,1,.8.16c.07,0,.17.16.24.18l0,0q.17.29,0-.5s-.05.11-.09.14a2.24,2.24,0,0,1-1.05.59,1.41,1.41,0,0,1-.6,0,.71.71,0,0,1-.21-.08c-.06,0-.19-.23-.21-.23v.22q-.05.36,0,.14c.05,0,.13-.15.18-.19a1.21,1.21,0,0,1,.33-.17,1.4,1.4,0,0,1,.89,0c.13,0,.18.15.29.21l.06.08q.13-.64-.06-.35c-.06,0-.13.14-.2.18a1,1,0,0,1-.92.1c-.07,0-.19-.13-.25-.13l-.05,0q-.22.55,0,.25c.14-.07.22-.21.39-.26a1,1,0,0,1,.42,0c.28,0,.34.25.38-.12s0-.16-.21-.07a1.4,1.4,0,0,1-.39.09c-.08,0-.67,0-.67-.06l0,.64c.11-.44.91-.26,1.19-.1V14.9a1,1,0,0,1-.85,0v.87a1.07,1.07,0,0,1,.31-.08v-.87l-.26,0a1.92,1.92,0,0,0,0,.87h0a2,2,0,0,0,0-.87h0v.87l.26,0c.1,0,0-.87,0-.87a1.07,1.07,0,0,0-.31.08,1.65,1.65,0,0,0,0,.87,1,1,0,0,0,.85,0,1.53,1.53,0,0,0,0-.87c-.29-.16-1-.32-1.19,0a1.5,1.5,0,0,0,0,1.08c.21.28,1,.16,1.2,0s.26-.82.18-1.11-.64-.48-1-.33c-.51.21-.52.75-.48,1.22a.8.8,0,0,0,1,.72.86.86,0,0,0,.75-.94c0-.42,0-.91-.45-1.07a1.38,1.38,0,0,0-1.36.35c-.36.44-.31,1.6.35,1.75a1.77,1.77,0,0,0,1.76-.8,1.07,1.07,0,0,0-.83-1.59c-1.13-.14-1.63,1-1.31,1.91s1.89.49,2.11-.35c.14-.54.16-1.34-.49-1.5a1.69,1.69,0,0,0-1.63.47,1.37,1.37,0,0,0,.3,1.69,1.1,1.1,0,0,0,1.45-.26,1.69,1.69,0,0,0,.26-1.27c-.09-1.14-1.52-1.18-2.07-.34-.29.44-.44,1.43,0,1.8a1.55,1.55,0,0,0,1.7,0,1.51,1.51,0,0,0-2.18-2.08,1.71,1.71,0,0,0,.15,2.2,1.62,1.62,0,0,0,2.31-.76c.18-.8,0-1.66-.91-1.82A1.23,1.23,0,0,0,132.71,15a2.06,2.06,0,0,0,.22,1.31,1.47,1.47,0,0,0,1.24.51c1-.05,1.29-1.05,1.08-1.93a1.21,1.21,0,0,0-1.79-.67,1.77,1.77,0,0,0,.05,2.27,1,1,0,0,0,1.22-.32,1.9,1.9,0,0,0,.19-1.27,1,1,0,0,0-1.62-.57,1.69,1.69,0,0,0,0,2.14c.74.5,1.8-.36,1.88-1.1s-.06-1.67-1-1.56-1,1.18-.85,1.92c.19,1.13,1.56,1,1.89,0,.24-.72.17-1.8-.71-2a1.13,1.13,0,0,0-1.13.37,2,2,0,0,0-.2,1.26,1.15,1.15,0,0,0,.7,1.1,1,1,0,0,0,1.33-.61,2,2,0,0,0,0-1.22,1.12,1.12,0,0,0-1.15-.55c-1.06.06-1.36,1.38-.94,2.21s2.2.58,2.42-.42c.18-.83-.21-2.12-1.29-2a1.94,1.94,0,0,0,0,.85Z"/><path class="k" d="M134.85,19.36c.46-.08,1.32.66,1.28,1.12,0,.77-1.39,1.28-2,.93a.92.92,0,0,1,.08-1.7c.77-.31,2.17.19,1.32,1.16a1,1,0,0,1-1.74-.89c.23-1.16,2.4-.89,2,.43-.31,1-1.7,1.16-1.86,0-.23-1.47,2.05-1.43,1.82-.19-.16.89-2.05,1.55-2.13.31s2.28-1.08,1.82.08c-.35.85-1.63.85-1.67-.12,0-1.63,2.4-.93,2.05.27-.31,1-2.25.85-2.44-.15-.35-1.55,2.24-1.63,2.4-.47.12,1-1.82,1.51-2.4.85-1.16-1.35,1.32-2.25,2.17-1.12,1.32,1.74-3.21,1.86-1.59,0,.46-.54,1.66-.54,1.86.27s-1,1.43-1.63,1c-1.78-1.28,2.75-2.13,1.59-.27-.35.5-1.55.74-1.86.08s.7-1.32,1.36-1.16c2.25.58-1.28,2.36-1.51,1-.12-.74,1.39-1.08,1.78-.58s-.5,1.12-1,.93-.74-.66-.15-1c.39-.23,1.39,0,.93.5-.19.19-1.32.39-1.28-.08s1-.27,1.2-.12a.93.93,0,0,1-.85,0,.71.71,0,0,1,.31-.08c-.08,0-.35,0-.23,0"/><path class="k" d="M134.85,19.79a1.16,1.16,0,0,1,.78.32c.14.12.23.3.37.41.3.25-.1-.27.08-.25a2.65,2.65,0,0,1-.18.3,1.65,1.65,0,0,1-1.66.45c-.22-.09-.29-.26-.46-.4s0-.21-.07,0a.77.77,0,0,1,.12-.2,1.12,1.12,0,0,1,.89-.4,1.42,1.42,0,0,1,.79.19s.1.09.15.12l0,.06q.16.25.06-.31c-.09,0-.28.41-.41.49a1,1,0,0,1-.84.1,1,1,0,0,1-.39-.23,1,1,0,0,1-.17-.2c-.11-.18,0-.23-.1-.09s.18-.2.2-.21a.92.92,0,0,1,.25-.18,1.24,1.24,0,0,1,.7-.1,1.08,1.08,0,0,1,.59.26c.08.07.24.42.19.17s0-.1,0,0a3.59,3.59,0,0,1-.24.36,1,1,0,0,1-1.34.07.82.82,0,0,1-.15-.26c0,.07-.05.13,0,0a.77.77,0,0,1,.21-.28,1,1,0,0,1,.63-.23,1.06,1.06,0,0,1,.54.11,1.36,1.36,0,0,1,.23.19,1.48,1.48,0,0,1,.1.18v-.33l0,.08c-.09.05-.18.28-.27.36a1.63,1.63,0,0,1-.29.21,1.54,1.54,0,0,1-.81.23c-.29,0-.36-.18-.58-.28s0-.08-.06.07a.55.55,0,0,1,.07-.15,1.05,1.05,0,0,1,1.5-.15c.07.06.12.2.18.24s.11-.35,0-.27-.11.18-.15.23a1,1,0,0,1-.76.32.79.79,0,0,1-.37-.11c-.09-.05-.28-.35-.28-.19,0-.22.3-.42.48-.48a1.3,1.3,0,0,1,1.2.27,3.3,3.3,0,0,1,.22.26s.05.14.07.14v-.2q0-.36,0-.06a1.26,1.26,0,0,1-.65.53,1.57,1.57,0,0,1-1.5-.34,2.4,2.4,0,0,1-.21-.35c.07.1-.12.21,0,.09a1.64,1.64,0,0,0,.12-.19,1.15,1.15,0,0,1,.57-.34,1.57,1.57,0,0,1,1.3.18,3,3,0,0,1,.23.24l.07.14c-.18,0,.2-.4-.06-.22-.1.07-.18.23-.29.31a1.72,1.72,0,0,1-.43.23,1.54,1.54,0,0,1-1.54-.13,2.54,2.54,0,0,1-.27-.42l0,.31,0-.08a1.88,1.88,0,0,0,.13-.19,1.36,1.36,0,0,1,.65-.36,1.57,1.57,0,0,1,1.5.33c.1.1.15.23.24.33a1,1,0,0,0,.06.14c-.13-.06.18-.46,0-.38s-.21.26-.34.33a1.69,1.69,0,0,1-1,.17,1.29,1.29,0,0,1-.45-.12s-.38-.29-.31-.31-.2.56,0,.37c0,0,0-.08.05-.11s.16-.26.27-.37a1.23,1.23,0,0,1,.82-.34,1.06,1.06,0,0,1,.78.25s.2.25.18.26.06-.27,0-.23-.3.36-.45.44a1.12,1.12,0,0,1-.84.14c-.29-.08-.37-.31-.58-.46s0-.44,0,.2v.27l0,0s.11-.15.14-.19a1.26,1.26,0,0,1,.42-.24,2,2,0,0,1,1-.11.81.81,0,0,1,.38.15s.09.14.12.15.12-.47,0-.38-.06.14-.09.19a1.31,1.31,0,0,1-1.64.42c-.06,0-.14-.16-.18-.18l-.06-.08,0,.28c-.05,0,.31-.36.36-.39a1.44,1.44,0,0,1,.91-.22,2.09,2.09,0,0,1,.68.27s.08.11.1.11-.05-.5,0-.5-.16.23-.19.26a2,2,0,0,1-1.11.51,1.15,1.15,0,0,1-.54,0,.61.61,0,0,1-.19-.1s-.08-.12-.11-.12-.06-.07,0,.16,0,.29,0,.18.22-.24.29-.29a1.36,1.36,0,0,1,.4-.16,1.25,1.25,0,0,1,.82,0l.15.09.06.08q.18.3.06-.34s-.28.28-.36.31a1.2,1.2,0,0,1-1,0c-.28-.08,0-.17-.21.06l0,.18a.67.67,0,0,1,.24-.25.78.78,0,0,1,.34-.14c.2,0,.7,0,.76.26V20c0,.3-.42.37-.66.4-.08,0-.67,0-.67-.06l0,.64c.11-.44.91-.26,1.19-.1V20a1,1,0,0,1-.85,0v.87a1,1,0,0,1,.31-.08V20l-.26,0a1.92,1.92,0,0,0,0,.87h0a2,2,0,0,0,0-.87h0v.87l.26,0c.1,0,0-.87,0-.87a1,1,0,0,0-.31.08,1.64,1.64,0,0,0,0,.87,1,1,0,0,0,.85,0,1.53,1.53,0,0,0,0-.87c-.29-.16-1-.32-1.19,0a1.5,1.5,0,0,0,0,1.08c.21.28,1,.16,1.2,0s.26-.82.19-1.11-.64-.48-1-.33c-.51.2-.52.75-.48,1.22a.8.8,0,0,0,1,.72.87.87,0,0,0,.75-.94c0-.42,0-.91-.45-1.07a1.38,1.38,0,0,0-1.37.35c-.38.46-.31,1.63.38,1.75a1.76,1.76,0,0,0,1.73-.83,1.07,1.07,0,0,0-.9-1.57,1.34,1.34,0,0,0-1.23,2c.41,1,1.91.38,2.09-.47.12-.58.13-1.33-.56-1.46a1.66,1.66,0,0,0-1.58.51,1.35,1.35,0,0,0,.4,1.72,1.14,1.14,0,0,0,1.41-.37,1.83,1.83,0,0,0,.21-1.32c-.15-1.14-1.63-1-2.11-.16-.26.44-.37,1.41.09,1.75a1.57,1.57,0,0,0,1.68-.05,1.51,1.51,0,0,0-2.23-2,1.71,1.71,0,0,0,.22,2.19,1.62,1.62,0,0,0,2.29-.83c.15-.82,0-1.64-1-1.78a1.23,1.23,0,0,0-1.53,1.25,1.93,1.93,0,0,0,.23,1.21,1.48,1.48,0,0,0,1.29.5c1-.08,1.24-1.06,1-1.92a1.22,1.22,0,0,0-1.75-.72,1.8,1.8,0,0,0-.07,2.25.93.93,0,0,0,1.28-.25,1.81,1.81,0,0,0,.21-1.2,1,1,0,0,0-1.57-.7,1.09,1.09,0,0,0-.39,1c0,.37,0,.9.27,1.17.67.58,1.84-.25,1.94-1s0-1.67-.95-1.63-1.05,1.12-.94,1.89c.17,1.11,1.5,1.07,1.87.1.27-.7.21-1.82-.64-2a1.15,1.15,0,0,0-1.14.32,1.82,1.82,0,0,0-.23,1.24,1.18,1.18,0,0,0,.65,1.12,1,1,0,0,0,1.36-.53,2,2,0,0,0,.05-1.25,1.08,1.08,0,0,0-1.09-.57c-1.09,0-1.44,1.35-1,2.21s2.2.58,2.41-.42c.18-.83-.21-2.12-1.29-2.05a1.94,1.94,0,0,0,0,.85Z"/><path class="k" d="M139.38,11c.47-.08,1.32.66,1.28,1.12,0,.77-1.39,1.28-2,.93a.92.92,0,0,1,.08-1.7c.77-.31,2.17.19,1.32,1.16a1,1,0,0,1-1.74-.89c.23-1.16,2.4-.89,2,.43-.31,1-1.7,1.16-1.86,0-.23-1.47,2.05-1.43,1.82-.19-.15.89-2.05,1.55-2.13.31s2.29-1.09,1.82.08c-.35.85-1.63.85-1.66-.12,0-1.63,2.4-.93,2.05.27-.31,1-2.25.85-2.44-.15-.35-1.55,2.25-1.63,2.4-.47.12,1-1.82,1.51-2.4.85-1.16-1.36,1.32-2.25,2.17-1.12,1.32,1.74-3.21,1.86-1.59,0,.46-.54,1.67-.54,1.86.27s-1,1.43-1.63,1c-1.78-1.28,2.75-2.13,1.59-.27-.35.5-1.55.74-1.86.08s.7-1.32,1.35-1.16c2.25.58-1.28,2.36-1.51,1-.12-.74,1.39-1.08,1.78-.58s-.5,1.12-1,.93-.73-.66-.15-1c.39-.23,1.39,0,.93.5-.19.19-1.32.39-1.28-.08s1-.27,1.2-.12a.93.93,0,0,1-.85,0,.71.71,0,0,1,.31-.08c-.08,0-.35,0-.23,0"/><path class="k" d="M139.38,11.38a1.16,1.16,0,0,1,.78.32c.14.12.23.3.37.41.3.25-.1-.27.08-.25a2.64,2.64,0,0,1-.18.3,1.65,1.65,0,0,1-1.66.45c-.22-.09-.29-.26-.46-.4s-.06-.21-.07,0,.07-.07.11-.13a1.12,1.12,0,0,1,.89-.4,1.42,1.42,0,0,1,.79.19s.1.09.15.12l0,.06q.16.25.06-.31c-.09,0-.28.41-.41.49a1,1,0,0,1-.85.1,1.05,1.05,0,0,1-.35-.19,1,1,0,0,1-.21-.24.72.72,0,0,1-.08-.16q0-.14,0,.06c-.14.24.14-.15.17-.18a.92.92,0,0,1,.28-.21,1.24,1.24,0,0,1,.7-.1,1.08,1.08,0,0,1,.59.26s.24.27.2.29v-.25l0,.11c-.08.07-.13.23-.21.32a1,1,0,0,1-1.38.12.79.79,0,0,1-.15-.26s-.08.22,0,0a.74.74,0,0,1,.21-.28,1,1,0,0,1,.59-.23,1.06,1.06,0,0,1,.58.11.77.77,0,0,1,.21.16s.07.15.11.17.06,0,0-.29l0,.08c-.21.18-.3.42-.56.57a1.57,1.57,0,0,1-.76.23.9.9,0,0,1-.31,0c-.14-.05-.2-.18-.32-.24s.07-.24-.06.07a.37.37,0,0,1,.05-.11,1.39,1.39,0,0,1,.3-.28,1.18,1.18,0,0,1,1.19.07c.06,0,.14.2.2.23l0,.07,0-.36s-.26.38-.18.28a1,1,0,0,1-.76.32c-.23,0-.6-.2-.64-.34,0,.06,0,0,0,0a.65.65,0,0,1,.12-.19.76.76,0,0,1,.29-.19,1.28,1.28,0,0,1,1.2.23,1,1,0,0,1,.22.23s.06.15.09.16v0q.08-.62,0-.32c-.08.06-.14.28-.24.37a1.1,1.1,0,0,1-.38.21,1.59,1.59,0,0,1-1.51-.29c-.1-.09-.14-.26-.23-.33s-.08.16,0,.08.06-.12.1-.17a1.08,1.08,0,0,1,.57-.39,1.6,1.6,0,0,1,1.31.15.89.89,0,0,1,.22.21s.07.15.09.16.1-.3,0-.23-.18.24-.27.32a1.62,1.62,0,0,1-.42.24,1.6,1.6,0,0,1-1.56-.08c-.06-.05-.23-.39-.28-.4l0,0q-.08.48,0,.28s0-.09.06-.11a1.52,1.52,0,0,1,.7-.47,1.59,1.59,0,0,1,1.51.28,2.19,2.19,0,0,1,.25.33s0,.14.07.14-.12-.35,0-.39c-.06,0-.24.31-.34.37a1.69,1.69,0,0,1-1,.17,1.33,1.33,0,0,1-.42-.11c-.1-.05-.26-.3-.33-.31.86.25-.17.59,0,.37a1,1,0,0,0,.07-.14,1.45,1.45,0,0,1,.29-.38,1.27,1.27,0,0,1,.84-.3,1,1,0,0,1,.72.26c-.08-.08.21.24.18.26l0-.28-.05.1c-.14.07-.26.3-.42.39a1.1,1.1,0,0,1-.9.13,1,1,0,0,1-.3-.19c-.07-.06-.18-.25-.24-.28s0-.63,0,.22,0,.23,0,.21.1-.13.13-.16a1.26,1.26,0,0,1,.43-.24,2,2,0,0,1,1.06-.11.78.78,0,0,1,.35.15l.13.18v-.22q0-.36,0-.15s-.06.13-.07.15a1.31,1.31,0,0,1-1.69.39l-.14-.15-.06-.08q-.1.44,0,.24c.11-.05.21-.27.33-.34a1.43,1.43,0,0,1,.91-.22,2,2,0,0,1,.68.27s.06.09.1.11c.19.09.16-.57,0-.47s-.11.17-.18.23a2,2,0,0,1-1.1.51,1.15,1.15,0,0,1-.54,0,2.39,2.39,0,0,1-.21-.12s-.05-.09-.09-.1-.06-.07,0,.16,0,.29,0,.18.28-.28.34-.31a1.44,1.44,0,0,1,.36-.14,1.25,1.25,0,0,1,.82,0l.15.09.06.08q.18.3.06-.35s-.28.28-.36.31a1.2,1.2,0,0,1-1,0c-.28-.07,0-.17-.21.07l0,.18a.67.67,0,0,1,.24-.25.78.78,0,0,1,.34-.14c.2,0,.7,0,.76.26v-.75c0,.3-.42.37-.66.4-.08,0-.67,0-.67-.05l0,.64c.11-.44.91-.26,1.19-.1V11.6a1,1,0,0,1-.85,0v.87a1,1,0,0,1,.31-.08v-.87l-.26,0a1.92,1.92,0,0,0,0,.87h0a2,2,0,0,0,0-.87h0v.87l.26,0c.1,0,0-.87,0-.87a1,1,0,0,0-.31.08,1.64,1.64,0,0,0,0,.87,1,1,0,0,0,.85,0,1.53,1.53,0,0,0,0-.87c-.29-.16-1-.32-1.19,0a1.5,1.5,0,0,0,0,1.08c.21.28,1,.16,1.2,0s.26-.82.19-1.11-.64-.48-1-.33c-.51.2-.52.75-.48,1.22a.8.8,0,0,0,1,.72.86.86,0,0,0,.75-.94c0-.42,0-.91-.45-1.07a1.38,1.38,0,0,0-1.37.35c-.36.44-.31,1.6.35,1.75a1.77,1.77,0,0,0,1.76-.8,1.07,1.07,0,0,0-.83-1.59c-1.13-.14-1.62,1-1.31,1.92s1.91.48,2.11-.37c.13-.56.15-1.34-.52-1.49a1.69,1.69,0,0,0-1.6.48,1.36,1.36,0,0,0,.34,1.71,1.13,1.13,0,0,0,1.45-.33,1.79,1.79,0,0,0,.22-1.27c-.11-1.15-1.58-1.09-2.1-.25-.27.44-.4,1.42.06,1.78a1.56,1.56,0,0,0,1.72-.07,1.61,1.61,0,0,0,.09-1.8,1.56,1.56,0,0,0-2.37-.18,1.7,1.7,0,0,0,.29,2.18,1.61,1.61,0,0,0,2.25-.89c.14-.84-.07-1.63-1-1.75a1.23,1.23,0,0,0-1.49,1.31,1.78,1.78,0,0,0,.26,1.19,1.51,1.51,0,0,0,1.31.46c1-.11,1.19-1.1,1-1.93a1.22,1.22,0,0,0-1.78-.67,1.79,1.79,0,0,0,0,2.25.94.94,0,0,0,1.25-.29,1.86,1.86,0,0,0,.2-1.24,1,1,0,0,0-1.6-.63,1.69,1.69,0,0,0-.06,2.13c.71.54,1.82-.3,1.91-1s0-1.67-1-1.6-1,1.13-.9,1.88c.17,1.11,1.5,1.08,1.88.1.27-.7.21-1.82-.64-2a1.15,1.15,0,0,0-1.15.32,1.82,1.82,0,0,0-.24,1.24,1.18,1.18,0,0,0,.65,1.12,1,1,0,0,0,1.36-.53,2,2,0,0,0,.05-1.25,1.08,1.08,0,0,0-1.09-.57c-1.1,0-1.44,1.35-1,2.21s2.2.58,2.41-.42c.18-.84-.21-2.12-1.29-2.05a1.94,1.94,0,0,0,0,.85Z"/><path class="l" d="M139.27,22.73c.46-.08,1.32.66,1.28,1.12,0,.77-1.4,1.28-2,.93a.92.92,0,0,1,.08-1.7c.77-.31,2.17.19,1.32,1.16a1,1,0,0,1-1.74-.89c.23-1.16,2.4-.89,2,.43-.31,1-1.7,1.16-1.86,0-.23-1.47,2.05-1.43,1.82-.19-.16.89-2.05,1.55-2.13.31s2.29-1.08,1.82.08c-.35.85-1.63.85-1.67-.12,0-1.63,2.4-.93,2.05.27-.31,1-2.25.85-2.44-.16-.35-1.55,2.25-1.63,2.4-.46.12,1-1.82,1.51-2.4.85-1.16-1.36,1.32-2.24,2.17-1.12,1.32,1.74-3.21,1.86-1.59,0,.46-.54,1.66-.54,1.86.27s-1,1.43-1.63,1c-1.78-1.28,2.75-2.13,1.59-.27-.35.5-1.55.74-1.86.08s.7-1.32,1.35-1.16c2.25.58-1.28,2.36-1.51,1-.12-.74,1.39-1.09,1.78-.58s-.5,1.12-1,.93-.74-.66-.15-1c.39-.23,1.39,0,.93.5-.19.19-1.32.39-1.28-.08s1-.27,1.2-.12a.93.93,0,0,1-.85,0,.73.73,0,0,1,.31-.08c-.08,0-.35,0-.23,0"/><path class="k" d="M139.27,22.73c.46-.08,1.32.66,1.28,1.12,0,.77-1.4,1.28-2,.93a.92.92,0,0,1,.08-1.7c.77-.31,2.17.19,1.32,1.16a1,1,0,0,1-1.74-.89c.23-1.16,2.4-.89,2,.43-.31,1-1.7,1.16-1.86,0-.23-1.47,2.05-1.43,1.82-.19-.16.89-2.05,1.55-2.13.31s2.29-1.08,1.82.08c-.35.85-1.63.85-1.67-.12,0-1.63,2.4-.93,2.05.27-.31,1-2.25.85-2.44-.16-.35-1.55,2.25-1.63,2.4-.46.12,1-1.82,1.51-2.4.85-1.16-1.36,1.32-2.24,2.17-1.12,1.32,1.74-3.21,1.86-1.59,0,.46-.54,1.66-.54,1.86.27s-1,1.43-1.63,1c-1.78-1.28,2.75-2.13,1.59-.27-.35.5-1.55.74-1.86.08s.7-1.32,1.35-1.16c2.25.58-1.28,2.36-1.51,1-.12-.74,1.39-1.09,1.78-.58s-.5,1.12-1,.93-.74-.66-.15-1c.39-.23,1.39,0,.93.5-.19.19-1.32.39-1.28-.08s1-.27,1.2-.12a.93.93,0,0,1-.85,0,.73.73,0,0,1,.31-.08c-.08,0-.35,0-.23,0"/><path class="k" d="M139.27,23.15a1.16,1.16,0,0,1,.78.32c.14.12.23.3.37.41.3.24-.1-.26.09-.25,0,0-.16.27-.18.3a1.65,1.65,0,0,1-1.66.45,1,1,0,0,1-.39-.31s-.16-.32-.14-.14.06-.06.11-.13a1.12,1.12,0,0,1,.89-.4,1.41,1.41,0,0,1,.79.19l.12.09c.2.1.06.31.14,0s-.07,0-.12,0a1,1,0,0,1-.28.28,1,1,0,0,1-.79.12,1.07,1.07,0,0,1-.4-.2,2.65,2.65,0,0,1-.31-.45v.24l0-.09a1.94,1.94,0,0,0,.14-.21.9.9,0,0,1,.24-.19,1.21,1.21,0,0,1,.7-.13,1.11,1.11,0,0,1,.6.23s.27.3.23.32.09-.26,0-.2-.14.27-.19.33a1,1,0,0,1-1.38.19c-.07-.06-.2-.4-.22-.21a.67.67,0,0,1,.21-.33,1,1,0,0,1,.58-.25,1.1,1.1,0,0,1,.55.08.81.81,0,0,1,.25.16l.12.16,0,.07v-.33a4.21,4.21,0,0,1-.5.6,1.65,1.65,0,0,1-.76.28.81.81,0,0,1-.62-.16c-.07-.06-.08-.14-.14-.19s-.15.21,0,.08.14-.2.25-.28a1.17,1.17,0,0,1,1.2,0c.09.06.14.15.23.21l.06.13v-.18q0-.32-.07-.07c-.12.08-.2.26-.34.35a1,1,0,0,1-.45.15.76.76,0,0,1-.68-.3c-.05-.06-.07-.11-.07,0a.51.51,0,0,1,.07-.16.84.84,0,0,1,.31-.27,1.26,1.26,0,0,1,1.23.19,1.06,1.06,0,0,1,.23.23,1,1,0,0,0,.08.13c.2.17-.07-.19,0-.16s-.6.51-.68.53a1.52,1.52,0,0,1-1.54-.44c0-.06-.07-.14-.12-.2s0,.07,0,.12a1.06,1.06,0,0,1,.21-.33,1.23,1.23,0,0,1,.6-.3,1.53,1.53,0,0,1,1.28.25c.08.07.13.21.21.26.23.14-.12-.25,0-.23s-.22.31-.14.22a1.57,1.57,0,0,1-.73.44,1.46,1.46,0,0,1-1.46-.2,1.58,1.58,0,0,0-.19-.29l0-.1,0,.31s.17-.27.2-.3a1.39,1.39,0,0,1,.67-.34,1.55,1.55,0,0,1,1.49.38c.08.09.14.3.23.36s0,.38,0-.14,0-.17,0-.14-.21.24-.37.32a1.73,1.73,0,0,1-1,.13,1.2,1.2,0,0,1-.41-.13c-.06,0-.11-.09-.17-.13-.33-.21.28-.1-.09.25.18-.17.23-.46.46-.63a1.3,1.3,0,0,1,.87-.23c.37,0,.45.23.73.41l.05.1,0-.28s-.28.37-.19.27a1.28,1.28,0,0,1-.4.28,1,1,0,0,1-.84,0c-.24-.11-.32-.35-.51-.48s-.16.58,0,.5,0-.05,0-.06.1-.13.16-.18a1.4,1.4,0,0,1,.45-.23,1.9,1.9,0,0,1,1-.08,1.6,1.6,0,0,1,.36.18c.11.06.11.39.09-.07s-.07,0-.21.15a1.34,1.34,0,0,1-1.59.25,1.71,1.71,0,0,1-.2-.23l0,.14q-.06.26,0,0c.13-.08.22-.24.36-.33a1.41,1.41,0,0,1,.91-.18,2.49,2.49,0,0,1,.66.29.62.62,0,0,1,.1.13c-.15,0,.22-.59,0-.49-.06,0-.14.18-.19.23a2.08,2.08,0,0,1-1.12.49,1.08,1.08,0,0,1-.53,0c-.07,0-.12-.09-.18-.11s-.07-.13-.1-.13,0,0,0,.19,0,.29,0,.14.2-.21.32-.27a1.44,1.44,0,0,1,.36-.14,1.25,1.25,0,0,1,.82,0l.15.09.12.16v-.42s-.29.28-.36.31a1.1,1.1,0,0,1-.47.11c-.2,0-.37-.14-.55-.16s0-.26-.14.1.08,0,.19-.07a.78.78,0,0,1,.34-.14c.21,0,.7,0,.76.26v-.75c0,.3-.42.37-.66.4-.08,0-.67,0-.67-.06l0,.64c.11-.44.91-.26,1.19-.1v-.87a1,1,0,0,1-.85,0v.87a1,1,0,0,1,.31-.08v-.87l-.26,0a1.92,1.92,0,0,0,0,.87h0a2,2,0,0,0,0-.87h0v.87l.26,0c.1,0,0-.87,0-.87a1,1,0,0,0-.31.08,1.65,1.65,0,0,0,0,.87,1,1,0,0,0,.85,0,1.53,1.53,0,0,0,0-.87c-.29-.16-1-.32-1.19,0a1.5,1.5,0,0,0,0,1.08c.21.28,1,.16,1.2,0s.26-.82.19-1.11-.64-.48-1-.33c-.51.21-.52.75-.48,1.22a.8.8,0,0,0,1,.72.86.86,0,0,0,.75-.94c0-.42,0-.91-.45-1.07a1.38,1.38,0,0,0-1.37.35c-.36.44-.31,1.6.35,1.75a1.77,1.77,0,0,0,1.76-.8,1.07,1.07,0,0,0-.83-1.59c-1.13-.14-1.62,1-1.31,1.91s1.89.49,2.11-.35c.14-.54.16-1.34-.49-1.5a1.69,1.69,0,0,0-1.63.47,1.37,1.37,0,0,0,.3,1.69,1.1,1.1,0,0,0,1.45-.26,1.69,1.69,0,0,0,.26-1.27c-.09-1.14-1.52-1.18-2.07-.34-.29.44-.44,1.43,0,1.8a1.55,1.55,0,0,0,1.7,0,1.51,1.51,0,0,0-2.18-2.08,1.71,1.71,0,0,0,.15,2.2,1.62,1.62,0,0,0,2.31-.76c.18-.8,0-1.66-.91-1.82a1.23,1.23,0,0,0-1.57,1.14,2.06,2.06,0,0,0,.22,1.31,1.47,1.47,0,0,0,1.24.51c1-.05,1.29-1.05,1.08-1.93a1.21,1.21,0,0,0-1.79-.67,1.77,1.77,0,0,0,.05,2.27,1,1,0,0,0,1.22-.32,1.9,1.9,0,0,0,.19-1.27,1,1,0,0,0-1.62-.57,1.69,1.69,0,0,0,0,2.14c.74.5,1.8-.36,1.88-1.1s-.06-1.67-1-1.56-1,1.18-.85,1.92c.19,1.13,1.57,1,1.89,0,.24-.72.17-1.8-.71-2a1.13,1.13,0,0,0-1.13.37,2,2,0,0,0-.21,1.26,1.15,1.15,0,0,0,.7,1.09,1,1,0,0,0,1.33-.61,2,2,0,0,0,0-1.22,1.12,1.12,0,0,0-1.15-.55c-1.06.06-1.36,1.38-.93,2.21s2.2.58,2.42-.42c.18-.84-.21-2.12-1.29-2.05a1.94,1.94,0,0,0,0,.85Z"/><path class="k" d="M138.62,12.43s0-.11.08-.08a23.35,23.35,0,0,1,0,5.69"/><path class="k" d="M138.62,12.77c.2-.25.17.79.18.93a16.28,16.28,0,0,1,0,2c0,.73-.08,1.46-.14,2.18,0,.09,0,.79.06.48a23.63,23.63,0,0,0,0-6.3.07.07,0,0,0,0-.05c-.06,0,0,0-.09.13s.08.58,0,.67Z"/><path class="k" d="M139,19.43c.11,0,.19.66.23,1,.19.81.43,1.59.58,2.4a8.16,8.16,0,0,1-.58-3.48,13,13,0,0,1-1.12,3.91"/><path class="k" d="M139,19.85c.22.13.22.95.29,1.23.17.7.36,1.39.51,2.09l0-.78a6.77,6.77,0,0,1-.56-2.85c0-.1,0-.72-.06-.59a13.11,13.11,0,0,1-1.11,3.87c-.11.21.08.73,0,.84a13.46,13.46,0,0,0,1.13-4l-.06-.59a9.46,9.46,0,0,0,.61,4.12c0-.09.07-.59,0-.78-.16-.78-.4-1.54-.56-2.33,0-.25,0-1-.28-1.09.06,0-.16.74,0,.83Z"/><path class="m" d="M139.09,23.85c.08,0,.12,0,.19,0a7.16,7.16,0,0,0-1.67-1.16c-1.4-.85-2.79-1.7-4.26-2.48"/><path class="k" d="M139.09,24.26l.19.05a2.49,2.49,0,0,0,0-.84,12.71,12.71,0,0,0-2.62-1.75,20.35,20.35,0,0,0-3.31-1.84s-.11.66,0,.73c1.86,1.29,4.31,2.08,5.93,3.69v-.84l-.19,0s-.1.79,0,.82Z"/><path class="m" d="M138.08,18.12c.23,0-1-.81-1.16-.93a13,13,0,0,0-2.83-1.43"/><path class="k" d="M138.08,18.52h0c.11,0,0-.7,0-.8-.1-.35-.82-.7-1.1-.89a8.75,8.75,0,0,0-2.92-1.43s-.1.67,0,.73c1,.5,1.94.92,2.86,1.51.29.19,1,.53,1.15.87v-.8h0c-.13.06,0,.8,0,.81Z"/><path class="k" d="M133.79,15.22a16.71,16.71,0,0,1,1,5.85"/><path class="k" d="M133.78,15.61a16.26,16.26,0,0,1,.94,5.45c0,.27.07.57.08.1a17.68,17.68,0,0,0-1-6.35c0,.13-.1.57,0,.79Z"/><path class="k" d="M138.82,11.81a.8.8,0,0,1,.12-.19,13.6,13.6,0,0,1-4.88,3.6"/><path class="k" d="M138.83,12.14l.12-.17c.09-.14-.08-.65,0-.71-.74.68-1.43,1.41-2.24,2a25.17,25.17,0,0,1-2.64,1.56c-.11.06,0,.75,0,.75,1.88-.47,3.65-2.19,4.88-3.61v-.71l-.12.22c-.08.15.06.6,0,.66Z"/><path class="k" d="M138.8,18.18c-.46.35-.75.26-1.29.8a10.8,10.8,0,0,1-3.92,1.89"/><path class="k" d="M138.8,17.84c-.34.19-.71.31-1,.54s-.77.64-1.23.9a29.47,29.47,0,0,1-2.94,1.21c-.1,0,0,.76,0,.76a9.36,9.36,0,0,0,2.94-1.17,8.45,8.45,0,0,0,1.1-.82c.36-.3.79-.46,1.16-.74.12-.09-.05-.65,0-.68Z"/><path class="k" d="M138.88,17.63c.46-.08,1.32.66,1.28,1.12,0,.78-1.39,1.28-2,.93a.93.93,0,0,1,.08-1.7c.77-.31,2.17.19,1.32,1.16a1,1,0,0,1-1.74-.89c.23-1.16,2.4-.89,2,.43-.31,1-1.7,1.16-1.86,0-.23-1.47,2.05-1.43,1.82-.19-.15.89-2.05,1.55-2.13.31s2.28-1.08,1.82.08c-.35.85-1.63.85-1.67-.12,0-1.63,2.4-.93,2.05.27-.31,1-2.25.85-2.44-.15-.35-1.55,2.25-1.63,2.4-.46.12,1-1.82,1.51-2.4.85-1.16-1.35,1.32-2.25,2.17-1.12,1.32,1.74-3.21,1.86-1.59,0,.46-.54,1.66-.54,1.86.27s-1,1.43-1.63,1c-1.78-1.28,2.75-2.13,1.59-.27-.35.5-1.55.74-1.86.08-1.33-2.67,1.64-1.09,1.36-1.16,2.25.58-1.28,2.36-1.51,1-.12-.74,1.39-1.08,1.78-.58s-.5,1.12-1,.93-.74-.66-.15-1c.39-.23,1.39,0,.93.5-.19.19-1.32.39-1.28-.08s1-.27,1.2-.12a.93.93,0,0,1-.85,0,.74.74,0,0,1,.31-.08,1.77,1.77,0,0,1-.23,0"/><path class="k" d="M138.88,18.06a1.12,1.12,0,0,1,.72.28,1.88,1.88,0,0,1,.29.27s.17.28.19.28l0-.35,0,.1c-.22.2-.34.41-.63.54a1.78,1.78,0,0,1-.88.18,1,1,0,0,1-.69-.37,1.63,1.63,0,0,1-.13-.21c.1.17-.09.16,0,0a1.41,1.41,0,0,1,.48-.4,1.58,1.58,0,0,1,1.42.22c.13.07.07.31.1-.06s0-.13,0-.08-.22.31-.41.41a1,1,0,0,1-.79.07,1.05,1.05,0,0,1-.35-.19c-.1-.08-.21-.36-.29-.4s-.05.16,0,.18a.61.61,0,0,1,.05-.13,1.62,1.62,0,0,1,.28-.31,1.23,1.23,0,0,1,1.2-.06c.05,0,.47.42.41.44-.38.09.18-.43-.06-.14,0,.05-.07.14-.11.19a1.11,1.11,0,0,1-.34.33.86.86,0,0,1-1.26-.3c0-.07,0,0-.05,0a.52.52,0,0,1,.07-.16,1,1,0,0,1,.2-.23,1,1,0,0,1,.56-.2,1.09,1.09,0,0,1,.51.08.83.83,0,0,1,.22.14s.15.25.18.26c-.58-.12.24-.54,0-.24a.86.86,0,0,0-.06.12,1.24,1.24,0,0,1-.28.31,1.71,1.71,0,0,1-.64.33,1.11,1.11,0,0,1-.64,0,.65.65,0,0,1-.22-.12c-.07-.06-.08-.14-.14-.19s-.13.19,0,.08.23-.3.47-.38a1.22,1.22,0,0,1,.57,0,1.05,1.05,0,0,1,.47.18c.07.05.13.19.2.23v0q.08.22,0-.32s-.15.25-.18.29a.91.91,0,0,1-1.28.09s-.14-.24-.11-.12,0,0,0,0a.66.66,0,0,1,.22-.27.92.92,0,0,1,.57-.17,1.4,1.4,0,0,1,1.07.56s0,.1.05.11,0-.21,0-.2a1.54,1.54,0,0,1-.25.33,1.24,1.24,0,0,1-.65.25,1.47,1.47,0,0,1-1.33-.49,1.19,1.19,0,0,0-.09-.15c-.14-.1,0-.06,0,.08a1.2,1.2,0,0,1,.18-.3,1.14,1.14,0,0,1,.5-.3,1.63,1.63,0,0,1,1.2.09c.19.1.26.29.41.39l0,0q.08.2,0-.27s-.1.16-.09.15a2.49,2.49,0,0,1-.33.3,1.93,1.93,0,0,1-1.48.26,1,1,0,0,1-.57-.44s-.05-.14-.08-.15-.11.26,0,.23.15-.24.21-.29a1.64,1.64,0,0,1,1.31-.35,1.42,1.42,0,0,1,.66.27,1.27,1.27,0,0,1,.27.29,2,2,0,0,0,.15.29c-.14-.06.18-.45,0-.37,0,0,0,.07-.05.08s-.1.11-.15.15a1.17,1.17,0,0,1-.39.19,1.79,1.79,0,0,1-.93,0,1,1,0,0,1-.35-.15c-.05,0-.1-.12-.16-.15s0-.06,0-.07-.15.53,0,.35.22-.4.4-.56a1.27,1.27,0,0,1,.8-.27,1.06,1.06,0,0,1,.68.22c.06.05.1.14.17.19l0,.05q.09.21,0-.23s-.26.34-.32.39a1,1,0,0,1-1.41,0s-.13-.21-.18-.23,0-.63,0,.22,0,.23,0,.21.21-.23.3-.28a1.73,1.73,0,0,1,1.69-.07s.09.16.11.16.06-.4,0-.4,0,.1,0,.11a1.34,1.34,0,0,1-.66.54,1,1,0,0,1-1.39-.58,2,2,0,0,0-.15-.4c-.11-.13,0,.18,0,.18s0-.08.06-.08.19-.11.31-.13a1.82,1.82,0,0,1,.82.16,1.22,1.22,0,0,1,.46.23l0-.74h0l0-.13h0s-.12.84,0,.87a1.5,1.5,0,0,1,.55.23s.17.17.15.17v-.54l0,.08c-.1.06-.19.22-.29.3a2.06,2.06,0,0,1-.42.23,1.84,1.84,0,0,1-.89.17A.76.76,0,0,1,138,19l-.16-.16q-.08-.19,0,.16t0,.14c.17-.07.31-.28.51-.36a1.56,1.56,0,0,1,.6-.1,1.36,1.36,0,0,1,.53.18q.18.34.12-.05t-.12-.06a2.29,2.29,0,0,1-.3.19,1,1,0,0,1-.64.06c-.1,0-.23-.12-.33-.13q-.23-.25-.19.27l.17-.2c.22-.19,1.08-.37,1.17.08v-.75c0,.3-.42.37-.66.4-.08,0-.67,0-.67-.06l0,.64c.11-.44.91-.25,1.19-.1v-.87a1,1,0,0,1-.85,0v.87a1,1,0,0,1,.31-.08v-.87l-.26,0a1.92,1.92,0,0,0,0,.87h0a2,2,0,0,0,0-.87h0v.87l.26,0c.1,0,0-.87,0-.87a1,1,0,0,0-.31.08,1.65,1.65,0,0,0,0,.87,1,1,0,0,0,.85,0,1.53,1.53,0,0,0,0-.87,1.23,1.23,0,0,0-1.07-.08c-.24.18-.18.59-.17.85s.06.45.39.5a1.27,1.27,0,0,0,.94-.22c.21-.21.17-.64.15-.91s-.18-.51-.55-.54c-.85-.08-1.13.84-.9,1.53s1.59.54,1.71-.22,0-1.44-.9-1.38-1.12.59-1.07,1.37a.74.74,0,0,0,1,.77c.5-.07,1.2-.36,1.35-.89a1,1,0,0,0-.75-1.48v.87h0s0-.13,0-.13c0-.2.08-.6,0-.76a1.19,1.19,0,0,0-.45-.22c-.34-.13-1-.34-1.2.06a2.5,2.5,0,0,0,.15,1.92.93.93,0,0,0,.94.69,1.31,1.31,0,0,0,1.12-.58,1.79,1.79,0,0,0,.06-1.57c-.28-.4-1-.31-1.38-.19a.94.94,0,0,0-.79,1c0,.62.22,1.32,1,1.29,1,0,1.28-1,1.14-1.86a1.09,1.09,0,0,0-1.89-.4,1.85,1.85,0,0,0-.35,1.73c.15.45.72.54,1.13.52a1,1,0,0,0,1.07-.73,1.67,1.67,0,0,0-.57-1.76,1.6,1.6,0,0,0-2,.28,1.83,1.83,0,0,0,.16,2,1.68,1.68,0,0,0,2.19-.24,1.74,1.74,0,0,0,.06-1.84,1.49,1.49,0,0,0-1.89-.2c-.54.38-.51,1.25-.38,1.83a1.39,1.39,0,0,0,1.86.82c.7-.27.77-1.11.65-1.76a1.24,1.24,0,0,0-1.46-.92c-.76.17-.74,1.13-.67,1.74a.85.85,0,0,0,1.58.38,1.63,1.63,0,0,0-.07-1.83,1.08,1.08,0,0,0-1.57.25c-.24.47-.26,1.64.29,1.91a1.45,1.45,0,0,0,1.76-.85c.17-.52.19-1.45-.37-1.74a1,1,0,0,0-1.46.64c-.13.59-.15,1.71.56,1.95,1.52.52,2.12-2.68.44-2.79-2-.13-1.29,3.61.39,2.69a1.51,1.51,0,0,0,.42-1.94,1.25,1.25,0,0,0-2.08.41c-.17.71-.06,1.81.8,2a1.44,1.44,0,0,0,1.74-1.34c0-.75-.41-1.72-1.32-1.67a1.94,1.94,0,0,0,0,.85Z"/><rect class="n" x="139.57" y="17.91" width="6.81" height="6.81"/><rect class="m" x="139.58" y="11.09" width="6.8" height="6.84"/><path class="k" d="M144.08,25.87c-.24-.1-.61-.12-1.06-.3a2.79,2.79,0,0,1-1.27-.89A3.87,3.87,0,0,1,141,22a4.78,4.78,0,0,1,.14-1.08l.07-.25.16.17,0,0c.06.06,0,.05,0,0l-.16-.16,0,.23A7.56,7.56,0,0,0,141,22a5,5,0,0,0,.13,1.32,4.87,4.87,0,0,1,.14-1.69,5.63,5.63,0,0,1,.08-.68l-.13,0,.18.18a7.88,7.88,0,0,0,.81.69,1.51,1.51,0,0,0,1,.4.56.56,0,0,0,.38-.52,2.29,2.29,0,0,0,0-.56,7.76,7.76,0,0,0-.21-1c0-.18-.12-.42-.22-.7l-.21.32c.5,0,1.09-.06,1.42-.09a11.47,11.47,0,0,1-1.42.14l.25-.39a10.2,10.2,0,0,1,.36,1.17,3,3,0,0,1,.09,1.3.65.65,0,0,1-.24.39.6.6,0,0,1-.46.1,1.72,1.72,0,0,1-.63-.27,7.28,7.28,0,0,1-1-.76l.11.13s.15.14.39.34a2.72,2.72,0,0,0,1.08.61.66.66,0,0,0,.51-.1.72.72,0,0,0,.27-.42,1.94,1.94,0,0,0,0-.63,4.52,4.52,0,0,0-.07-.54l-.13-.57.07.28.06.29a4.6,4.6,0,0,1,.12.78,1.44,1.44,0,0,1-.06.49.73.73,0,0,1-.57.51,1.11,1.11,0,0,1-.7-.18,4.29,4.29,0,0,1-.47-.31,3.69,3.69,0,0,1-.55-.56l-.35-.34,0,0,.37-.13v.08h0l0-.07-.44.15a4.29,4.29,0,0,0,.65.8,4,4,0,0,0,.64.53,1.7,1.7,0,0,0,.52.24,1,1,0,0,0,.44,0,.91.91,0,0,0,.51-.29,1.34,1.34,0,0,0,.29-.74,3.14,3.14,0,0,0,0-.52,5.67,5.67,0,0,0-.12-.82,5.75,5.75,0,0,0-.3-1l0-.09-.66,1c.53-.08,1-.29,1.59-.43a2,2,0,0,0,.56-.15s.08-.08.16-.13c.39-.15,1-.35,1.1-.86a3.15,3.15,0,0,0,.32-.74c.07-.31.06-.57,0-.58-.4-.07-.08-.05-.41-.6,0-.07-.28-.17-.36-.28-.25-.4-.43-.42-.83-.72s-.62-.57-1.07-.77l0,.85.15-.2.38-.44c.18-.2.33-.41.33-.41a2.42,2.42,0,0,0,.61-.91.9.9,0,0,0,0-.62,1.24,1.24,0,0,0-.41-.53,12.61,12.61,0,0,0-1.3-.15,5.46,5.46,0,0,0-1.23,0,4.48,4.48,0,0,1-1.07.05l.58.38a4.72,4.72,0,0,0-.06-.74c0-.21-.14-.35-.16-.49s-.29-.36-.45-.56h.11a1.74,1.74,0,0,0-.23-.28c-.07-.07,0-.07,0-.08s.16,0,0-.18a2.06,2.06,0,0,0-1.35-.59,2.31,2.31,0,0,0-1.22.5.3.3,0,0,1,0,.15,2.84,2.84,0,0,0-.24.24c0,.11.08.17.09.24s.09.59.29.71.4-.23.6-.19,0,.13,0,.22c.16-.09.2,0,.18.1l.07,0,0,.12c.19,0,.25.09.21.14s0,.1.17.24.18.16.26.26,0,.18,0,.23.19,0,.29,0l0,.25,0,.63.9,0c.47,0,1.14,0,1.09-.28.36,0,.42-.17.8-.2a4.21,4.21,0,0,1,.78,0c.28,0,.45.18.38.08s0,.07-.06.18a1.87,1.87,0,0,1-.25.34,3.27,3.27,0,0,1-.23.25,8.21,8.21,0,0,1-.84.73l-.5.39.53.38a6.65,6.65,0,0,1,1.88,1.88,1,1,0,0,1,.14.42.33.33,0,0,1-.11.25,2.81,2.81,0,0,1-1.12.54,7.92,7.92,0,0,1-1.37.26l-.48.06.18.4a7.58,7.58,0,0,1,.43,1.2,3.46,3.46,0,0,1,.11.6.68.68,0,0,1-.05.4.47.47,0,0,1-.29-.07,2.87,2.87,0,0,1-.48-.31,9,9,0,0,1-.88-.79l-.46-.46-.11.65a5.14,5.14,0,0,0,.52,3.75,3,3,0,0,0,1.21,1,3.47,3.47,0,0,0,.95.26Z"/><path class="k" d="M134.3,21.07a8.77,8.77,0,0,1-2.43,3.31"/><path class="o" d="M133.52,20.58a.68.68,0,0,0,.23.52.83.83,0,0,0,1.11,0,.69.69,0,0,0,0-1,.83.83,0,0,0-1.11,0A.68.68,0,0,0,133.52,20.58Z"/><path class="o" d="M133.54,20.58s0,0,.05,0l-.06,0Z"/><path class="o" d="M133.57,20.45l0-.08,0,.05s-.06,0-.07,0S133.54,20.43,133.57,20.45Z"/><path class="o" d="M133.55,20.32s0,0,0,0S133.54,20.33,133.55,20.32Z"/><path class="o" d="M134.84,20.89h0S134.86,20.87,134.84,20.89Z"/><polygon class="o" points="134.87 20.89 134.87 20.9 134.87 20.89 134.87 20.89"/><path class="o" d="M135.24,20c-.06,0-.07-.08-.12-.11v-.06c-.07,0,0,0-.1,0s-.15-.11-.17-.13,0,0,.05,0-.09,0-.18,0h0a1.32,1.32,0,0,0-.72.05s0,0,0,0c-.23.07-.45.27-.45.48.06-.11.23-.17.29-.3s.09-.06.13,0,.21-.12.38-.11,0,0,0,.06l-.12,0,.07,0s-.11,0-.11,0,.25,0,.35,0a.46.46,0,0,0-.14,0s-.05,0,0-.06a.57.57,0,0,1,.44.11s.08.06.07.08,0,0,0,0,.05-.06.11,0l-.06,0c.08,0,.06.08.13.1s-.05,0-.08,0,.06,0,.08.06H135c.08,0,0,.07,0,.1s.05,0,.07,0,0,0,0,0a.06.06,0,0,1,.07,0s0,0-.06,0,0,0,0,.06,0,0,.06,0-.07,0-.12.06-.07-.08-.09-.09l0,.07s0,.06-.07,0a1.22,1.22,0,0,0,0,.23s0,0,0,0,0,0,0,0,.06,0,.08.07,0,.06-.11.08l0,0c-.05,0,0,.05,0,.07s0,0,0,0,0,0-.06,0l0-.05s0,.05,0,0-.07.11-.1.16l0,0c0,.06-.09,0-.09.1h0l0,.07s0-.06,0,0a.18.18,0,0,1-.14,0c0,.05-.08.07-.13.06a1,1,0,0,1-.61-.48s-.08-.09-.1-.14,0,.08,0,.14-.05.08-.07.14l0,0c.06.06,0,.06.06.09l-.07,0s0,.06,0,.09h.05c0,.05,0,.09,0,.13l0,0s.13.13,0,.14,0,0,.06,0l0,0s.09,0,.09.07a.09.09,0,0,0-.07,0c.17.12.12-.1.26,0v0h.05l0,.05c.08-.07.23.06.33,0s.09.05.16,0v0c.06,0,.29,0,.4.06s0,0,0,0,.12,0,.19-.07-.06,0,0,0,0-.09.15-.18,0,0,0,.06a2.2,2.2,0,0,0,.21-.4,1.06,1.06,0,0,0,.06-.65h0c0-.1-.08-.18-.13-.27Z"/><path class="o" d="M134.22,19.95v0l.06,0S134.25,20,134.22,19.95Z"/><polygon class="o" points="134.22 19.83 134.19 19.85 134.24 19.84 134.22 19.83"/><polygon class="o" points="134.94 20.2 134.94 20.19 134.83 20.12 134.94 20.2"/><path class="o" d="M134.81,20.86s0,0,0,0v0Z"/><path class="o" d="M134.42,20.94c0,.07,0,0,0,.06S134.41,21,134.42,20.94Z"/><path class="o" d="M134.35,21s0,0,0,0S134.36,21,134.35,21Z"/><path class="o" d="M141.95,15.92a.41.41,0,0,0,.33-.16.63.63,0,0,0,0-.78.41.41,0,0,0-.66,0,.62.62,0,0,0,0,.78A.42.42,0,0,0,141.95,15.92Z"/><path class="o" d="M141.95,15.89s0-.05,0-.08l0,.08Z"/><path class="o" d="M141.87,15.86l-.06.07,0,0c0,.05,0,.09,0,.1S141.85,15.91,141.87,15.86Z"/><path class="o" d="M141.77,15.9s0,0,0,.06S141.78,15.92,141.77,15.9Z"/><path class="o" d="M142.06,15.09l0,0S142.05,15.08,142.06,15.09Z"/><polygon class="o" points="142.08 15.06 142.09 15.05 142.08 15.05 142.08 15.06"/><path class="o" d="M141.37,14.52c0,.07-.06.08-.09.13l-.07,0c0,.05,0,0,0,.1s-.1.14-.11.16,0,0,0-.06.05.1,0,.18h0a1.46,1.46,0,0,0,.11.59s0,0,0,0c.06.18.21.37.42.31-.09,0-.07-.2-.21-.21,0,0-.05-.07,0-.1s-.13-.14-.13-.27,0,0,.08,0l0,.08,0,0s0,.07.07.07,0-.16-.08-.24,0,.07,0,.1,0,0-.08,0,0-.23,0-.35,0-.07.07-.05,0,0,0,.05-.09-.08,0-.12l.09.08c-.08-.1.06,0,0-.12a.06.06,0,0,1,0,.09s0-.06,0-.08l0,.1c0-.09.05,0,.08,0s-.07-.08,0-.09,0,0,0,0,0-.07,0-.08,0,.05,0,.09,0,0,0,0,0,0,0-.09,0,.11.06.18a.31.31,0,0,0,0,.1l0,0s0,.06,0,.1,0,0,.07,0a.16.16,0,0,1,0,0s0,0,0,.06,0-.09.06-.13,0,0,0,.12l0-.06c0,.05,0,0,0,0l0,0s0,.05,0,0l-.06,0s0,0,0,0,.07,0,.12,0l-.05,0c.07,0,0,0,.1,0h.06s-.09,0-.07,0,0,.05,0,.08.1,0,.1.08-.08.29-.23.43S142,16,142,16s.06,0,.1,0,.08.09.14.12l0-.06c0-.07.06,0,.07-.07l.05.1c0-.06,0,0,.08,0l0-.07a.26.26,0,0,1,.14,0l-.05,0s.09-.11.15,0,0,0,0-.06l.06,0s0-.09.06-.08a.14.14,0,0,0,0,.07c.1-.15-.17-.14-.12-.27l0,0,0,0,.06,0c-.13-.08.05-.18,0-.26s.08-.07.06-.13h-.07c.07-.05.07-.24.18-.36-.07,0,0,0-.06,0s0-.12,0-.19,0,.06-.06.06-.11,0-.15-.13,0,0,.08,0-.22-.17-.38-.21a.9.9,0,0,0-.65-.09v0c-.12,0-.17.09-.26.14Z"/><path class="o" d="M141.63,15.42h.06l0,0S141.64,15.4,141.63,15.42Z"/><polygon class="o" points="141.45 15.43 141.48 15.45 141.47 15.41 141.45 15.43"/><polygon class="o" points="141.72 14.95 141.71 14.95 141.69 15.04 141.72 14.95"/><path class="o" d="M142,15.14l0,0,0,0Z"/><path class="o" d="M141.88,15.34h0Z"/><path class="o" d="M142,15.34h0S142,15.34,142,15.34Z"/><path class="i" d="M142.51,17.77a.58.58,0,0,0,.2.44.72.72,0,0,0,1,0,.58.58,0,0,0,.2-.44.58.58,0,0,0-.2-.45.71.71,0,0,0-1,0A.59.59,0,0,0,142.51,17.77Z"/><path class="i" d="M142.53,17.77s0,0,.05,0l-.05,0Z"/><path class="i" d="M142.56,17.67l0-.07,0,0s-.06,0-.06,0S142.53,17.65,142.56,17.67Z"/><path class="i" d="M142.54,17.55s0,0,0,0S142.52,17.56,142.54,17.55Z"/><path class="i" d="M143.63,18h0S143.65,18,143.63,18Z"/><polygon class="i" points="143.66 18.03 143.66 18.04 143.66 18.03 143.66 18.03"/><path class="i" d="M144,17.25c-.06,0-.07-.07-.11-.1v-.05c-.06,0,0,0-.09,0s-.13-.1-.15-.11,0,0,0,0-.08,0-.16,0h0a1.18,1.18,0,0,0-.63.05s0,0,0,0c-.2.06-.4.24-.38.42,0-.1.2-.15.25-.26s.08-.05.11,0,.18-.11.33-.1,0,0,0,.05l-.11,0,.06,0s-.09,0-.1,0,.22,0,.31,0a.38.38,0,0,0-.12,0s0,0,0-.05a.48.48,0,0,1,.39.09s.07.06.06.07,0,0,0,0,.05-.06.1,0l-.06,0c.08,0,.05.07.12.08s0,0-.07,0,.05,0,.07,0h-.07c.07,0,0,.06,0,.08s.05,0,.07,0,0,0,0,0a.05.05,0,0,1,.06,0s0,0-.06,0,0,0,0,.05,0,0,.06,0-.07,0-.11.05-.06-.07-.08-.08l0,.05s0,0-.06,0a.67.67,0,0,0,0,.19h0s0,0,0,0,.05,0,.08.06,0,.05-.1.06l0,0s0,0,0,.06,0,0,0,0,0,0,0,0l0,0s0,0,0,0-.06.09-.08.14l0,0c0,.05-.07,0-.08.09h0l0,.06s0-.06,0,0a.13.13,0,0,1-.12,0c0,.05-.07.06-.11.06a.88.88,0,0,1-.53-.4s-.07-.08-.1-.12,0,.07,0,.12-.05.07-.07.13l0,0c.05,0,0,.05.05.08l-.06,0s0,.06,0,.08h0s0,.08,0,.12l0,0s.11.11,0,.13,0,0,.05,0l0,0s.08,0,.08.07a.08.08,0,0,0-.06,0c.15.11.11-.09.24,0v0h0l0,0c.07-.07.2.06.29,0s.08,0,.14,0v0c.06,0,.26,0,.36.06s0,0,0,0,.11,0,.17-.06-.05,0,0,0,0-.08.13-.16,0,0,0,.06a2.14,2.14,0,0,0,.18-.36.94.94,0,0,0,.06-.58h0c0-.09-.07-.16-.12-.24Z"/><path class="i" d="M143.11,17.24v0l0,0S143.14,17.24,143.11,17.24Z"/><polygon class="i" points="143.11 17.13 143.09 17.15 143.13 17.14 143.11 17.13"/><polygon class="i" points="143.73 17.45 143.73 17.44 143.64 17.38 143.73 17.45"/><path class="i" d="M143.6,18s0,0,0,0v0Z"/><path class="i" d="M143.27,18c0,.07,0,0,0,.06S143.27,18.07,143.27,18Z"/><path class="i" d="M143.22,18.15s0,0,0,0S143.23,18.14,143.22,18.15Z"/><path class="j" d="M140.51,20a.56.56,0,0,0,.44.17.69.69,0,0,0,.65-.65.57.57,0,0,0-.6-.61.68.68,0,0,0-.65.65A.56.56,0,0,0,140.51,20Z"/><path class="j" d="M140.52,20s0,0,0-.06l-.06,0Z"/><path class="j" d="M140.47,19.88h-.09l.05,0c0,.06-.07,0-.09,0S140.43,19.89,140.47,19.88Z"/><path class="j" d="M140.37,19.82s0,0-.06,0S140.37,19.84,140.37,19.82Z"/><path class="j" d="M141.4,19.41l0,0S141.4,19.38,141.4,19.41Z"/><polygon class="j" points="141.43 19.39 141.44 19.39 141.43 19.39 141.43 19.39"/><path class="j" d="M141.2,18.5c-.07,0-.1,0-.16,0l0-.06c-.08,0,0,0-.06.08s-.17,0-.2,0,0,0,0-.06,0,.09-.13.12h0a1.26,1.26,0,0,0-.42.52s0,0,0,0a.46.46,0,0,0,.06.58c0-.1.06-.24,0-.35s0-.1.07-.09,0-.21.14-.31,0,0,.05,0l-.06.09.06,0s-.06.07,0,.11.14-.15.17-.24-.07,0-.11.06-.06,0-.07,0,.2-.18.33-.23.09,0,.1,0,0,0,0,0,0-.1.07-.09v.1c0-.1.08,0,.14,0s0,.06-.06.06.05,0,.09,0l0,.07c0-.07.06,0,.06.06s0-.08,0-.07,0,0,0,0,0,0,.07,0,0,0,0,.05,0,0,0,0,0,0,.05,0,0,.08-.06.14-.09,0-.11,0h.06s0,.07,0,.08.09.06.13.08,0,0,0,0,0,0,0,0,.08,0,.12,0,0,.06,0,.11l.05,0s0,0,0,.06h0s0,0,0,.05h-.06s0,0,0,0,0,.09.06.14h0c.05,0,0,.06,0,.11h0l0,.07s-.07,0-.06,0,0,.07-.07.08a.09.09,0,0,1,0,.13,1,1,0,0,1-.62.1s-.11,0-.16,0,.06,0,.1.06,0,.1,0,.16v-.06c.08,0,0,0,.1,0l0,.08s.07,0,.08,0l0-.06s.06.06.07.11v-.06s.16,0,.12.09,0,0,0,0v.05c.05,0,.09,0,.11,0a.11.11,0,0,0,0,.07c.19,0,0-.18.14-.23v0l0,0,.06,0c0-.13.19-.1.2-.21s.1,0,.14-.07l0,0c.08,0,.21-.17.34-.2,0-.07,0,0-.05,0s.06-.11.1-.17,0,.05-.06,0,0-.07,0-.1,0,0,0-.11,0,0,0,0-.05-.27-.14-.4a1,1,0,0,0-.38-.49v0c-.06-.08-.18-.07-.27-.1Z"/><path class="j" d="M140.58,19.23l0,0a.27.27,0,0,1,0-.05S140.6,19.22,140.58,19.23Z"/><polygon class="j" points="140.47 19.13 140.47 19.17 140.5 19.13 140.47 19.13"/><polygon class="j" points="141.11 18.95 141.11 18.94 141.01 18.98 141.11 18.95"/><path class="j" d="M141.35,19.41l0,0,0,0Z"/><path class="j" d="M141.13,19.6c.07.05,0,0,.06,0S141.15,19.62,141.13,19.6Z"/><path class="j" d="M141.2,19.71s0,0,0,0S141.19,19.7,141.2,19.71Z"/><path class="p" d="M128.12,28a.53.53,0,0,1-.16.41.59.59,0,0,1-.42.15h-.83V26.64h.82a.54.54,0,0,1,.38.13.46.46,0,0,1,.15.36.46.46,0,0,1-.09.29.38.38,0,0,1-.26.13.54.54,0,0,1,.3.15A.43.43,0,0,1,128.12,28Zm-.5-.8a.26.26,0,0,0-.07-.19.25.25,0,0,0-.19-.07h-.23v.52h.26a.22.22,0,0,0,.17-.07A.28.28,0,0,0,127.62,27.22Zm.07.74a.27.27,0,0,0-.08-.22.32.32,0,0,0-.22-.07h-.27v.58h.3a.24.24,0,0,0,.2-.08A.32.32,0,0,0,127.69,28Z"/><path class="p" d="M129.69,28h-1a.37.37,0,0,0,.13.24.39.39,0,0,0,.24.07,1.06,1.06,0,0,0,.25,0,.66.66,0,0,0,.22-.09v.34a.59.59,0,0,1-.22.08l-.24,0a.77.77,0,0,1-.56-.2.7.7,0,0,1-.2-.53.72.72,0,0,1,.21-.54.71.71,0,0,1,.52-.2.62.62,0,0,1,.5.22A.89.89,0,0,1,129.69,28Zm-.36-.18a.39.39,0,0,0-.12-.23.32.32,0,0,0-.22-.08.3.3,0,0,0-.23.08.39.39,0,0,0-.09.22Z"/><path class="p" d="M130.48,28.36l-.27.25a.8.8,0,0,1-.23-.21.47.47,0,0,1-.09-.28V26.64h.39V28a.43.43,0,0,0,0,.22A.55.55,0,0,0,130.48,28.36Z"/><path class="p" d="M131.88,28.41a.53.53,0,0,1,0,.23.55.55,0,0,1-.13.17.71.71,0,0,1-.17.12l-.18.07H131v-.22a.9.9,0,0,0,.39-.06.2.2,0,0,0,.1-.19v-.1l-.14.09-.09,0h-.09a.54.54,0,0,1-.44-.19.81.81,0,0,1-.16-.52.72.72,0,0,1,.18-.51.61.61,0,0,1,.46-.2.6.6,0,0,1,.19,0,.5.5,0,0,1,.17.1l.21-.08.08,0Zm-.37-.28v-.55a.25.25,0,0,0-.08-.08.27.27,0,0,0-.14,0,.27.27,0,0,0-.24.11.42.42,0,0,0-.07.24.55.55,0,0,0,.08.3.25.25,0,0,0,.23.12.32.32,0,0,0,.14,0A.22.22,0,0,0,131.52,28.14Z"/><path class="p" d="M132.59,27.05h-.39v-.36h.39Zm0,1.53h-.39V27.22l.39,0Z"/><path class="p" d="M134.31,28.37l-.31.25a.32.32,0,0,1-.12-.07.24.24,0,0,1-.07-.11l-.24.14,0,0h-.06a.6.6,0,0,1-.45-.19.73.73,0,0,1-.18-.52.76.76,0,0,1,.19-.53.61.61,0,0,1,.48-.21.51.51,0,0,1,.22,0,.44.44,0,0,1,.13.08l.22-.08.08,0v.87a.35.35,0,0,0,0,.18A.25.25,0,0,0,134.31,28.37Zm-.54-.19v-.59a.32.32,0,0,0-.1-.08.3.3,0,0,0-.15,0,.27.27,0,0,0-.21.09.46.46,0,0,0-.08.31.44.44,0,0,0,.08.28.26.26,0,0,0,.22.1l.15,0Z"/><path class="p" d="M135.77,28.58h-.39v-.86a.19.19,0,0,0-.05-.13.21.21,0,0,0-.16-.06.33.33,0,0,0-.18,0l-.11.08v.92h-.39V27.22l.39,0v.13l.16-.09.15-.06.15,0a.41.41,0,0,1,.32.12.46.46,0,0,1,.12.33Z"/><path class="p" d="M137.76,27h-.46v1.61h-.43V27h-.46v-.34h1.35Z"/><path class="p" d="M139.29,27.88a.73.73,0,0,1-.19.53.7.7,0,0,1-.53.2.69.69,0,0,1-.54-.2.77.77,0,0,1-.18-.53.75.75,0,0,1,.19-.52.67.67,0,0,1,.53-.22.7.7,0,0,1,.53.2A.74.74,0,0,1,139.29,27.88Zm-.39,0a.51.51,0,0,0-.09-.3.27.27,0,0,0-.24-.13.28.28,0,0,0-.25.12.56.56,0,0,0-.08.31.49.49,0,0,0,.09.3.32.32,0,0,0,.49,0A.55.55,0,0,0,138.9,27.88Z"/><path class="p" d="M140.8,28.58h-.39v-.15l-.16.09-.14.06-.16,0a.41.41,0,0,1-.32-.12.47.47,0,0,1-.12-.33v-.92h.39v.84a.19.19,0,0,0,.05.13.21.21,0,0,0,.16.06.34.34,0,0,0,.18,0l.11-.08v-.9h.39Z"/><path class="p" d="M142,27.63l-.1-.05-.16,0a.44.44,0,0,0-.18,0,.39.39,0,0,0-.12.08v.92h-.39V27.22l.39,0v.14l.12-.08.13-.06.14,0H142l.06,0Z"/><path class="p" d="M142.64,27.05h-.39v-.36h.39Zm0,1.53h-.39V27.22l.39,0Z"/><path class="p" d="M144,28.12a.45.45,0,0,1-.16.36.59.59,0,0,1-.4.14l-.26,0a.83.83,0,0,1-.27-.09v-.34l.21.09a.89.89,0,0,0,.28,0,.42.42,0,0,0,.18,0,.12.12,0,0,0,.07-.12.1.1,0,0,0-.06-.09.52.52,0,0,0-.2,0,.57.57,0,0,1-.36-.13.38.38,0,0,1-.1-.28.4.4,0,0,1,.16-.33.61.61,0,0,1,.39-.13l.22,0,.2,0v.35l-.2-.07-.22,0a.28.28,0,0,0-.15,0,.09.09,0,0,0-.05.07.1.1,0,0,0,.07.1l.16,0a.63.63,0,0,1,.38.12A.36.36,0,0,1,144,28.12Z"/><path class="p" d="M144.86,28.35l-.28.26a.54.54,0,0,1-.26-.21.61.61,0,0,1-.09-.33v-.59h-.13v-.25h.13v-.45l.39,0v.48h.2v.25h-.2V28a.39.39,0,0,0,.24.39Z"/><path class="p" d="M147.19,27.62a1.06,1.06,0,0,1-.23.72.8.8,0,0,1-.64.27.82.82,0,0,1-.64-.26,1.06,1.06,0,0,1-.24-.73,1.07,1.07,0,0,1,.23-.73.81.81,0,0,1,.64-.26.83.83,0,0,1,.65.25A1.08,1.08,0,0,1,147.19,27.62Zm-.46,0a.87.87,0,0,0-.1-.48.4.4,0,0,0-.63,0,.85.85,0,0,0-.11.49.88.88,0,0,0,.1.47.35.35,0,0,0,.32.16.35.35,0,0,0,.32-.16A.93.93,0,0,0,146.73,27.62Z"/><path class="p" d="M148.21,27l-.1,0H148a.15.15,0,0,0-.11,0,.17.17,0,0,0,0,.12v.13h.24v.25h-.24v1.11h-.39V27.47h-.13v-.25h.13V27a.42.42,0,0,1,.13-.31.43.43,0,0,1,.32-.12l.18,0,.13,0Z"/><path class="p" d="M149,27l-.1,0h-.11a.15.15,0,0,0-.11,0,.17.17,0,0,0,0,.12v.13h.24v.25h-.24v1.11h-.39V27.47h-.13v-.25h.13V27a.42.42,0,0,1,.13-.31.43.43,0,0,1,.31-.12l.18,0,.13,0Z"/><path class="p" d="M149.48,27.05h-.39v-.36h.39Zm0,1.53h-.39V27.22l.39,0Z"/><path class="p" d="M150.86,28.47a.54.54,0,0,1-.15.09.69.69,0,0,1-.28,0,.72.72,0,0,1-.51-.18.71.71,0,0,1-.19-.55.75.75,0,0,1,.2-.52.65.65,0,0,1,.51-.22l.23,0,.16,0v.4a.68.68,0,0,0-.18-.09l-.18,0a.31.31,0,0,0-.25.1.44.44,0,0,0-.09.3.36.36,0,0,0,.11.28.36.36,0,0,0,.25.09.53.53,0,0,0,.22,0l.16-.1Z"/><path class="p" d="M152.4,28h-1a.37.37,0,0,0,.13.24.39.39,0,0,0,.24.07,1.06,1.06,0,0,0,.25,0,.67.67,0,0,0,.22-.09v.34a.6.6,0,0,1-.23.08l-.24,0a.77.77,0,0,1-.56-.2.7.7,0,0,1-.2-.53.72.72,0,0,1,.21-.54.71.71,0,0,1,.52-.2.62.62,0,0,1,.49.22A.9.9,0,0,1,152.4,28Zm-.36-.18a.39.39,0,0,0-.12-.23.32.32,0,0,0-.22-.08.3.3,0,0,0-.23.08.38.38,0,0,0-.09.22Z"/><path class="p" d="M131.19,30.55a.6.6,0,0,1,.21.12.42.42,0,0,1,.13.32c0,.24-.19.39-.46.4a.4.4,0,0,1-.22-.08s0,.05-.09.05a.1.1,0,0,1-.12-.12.63.63,0,0,0,0-.11v-.46l0,0a.14.14,0,0,1,0-.07.08.08,0,0,1,.06-.08v-.59s0,0,0-.06a.13.13,0,0,1,0-.1.12.12,0,0,1,.08,0,1.28,1.28,0,0,1,.27,0,.52.52,0,0,1,.36.12.41.41,0,0,1,.15.33.44.44,0,0,1-.21.34.48.48,0,0,1-.2.08Zm-.3.59a.4.4,0,0,0,.19.08.22.22,0,0,0,.24-.23.3.3,0,0,0-.14-.26.59.59,0,0,0-.28-.08Zm0-.66a.93.93,0,0,0,.28-.09.32.32,0,0,0,.19-.25.29.29,0,0,0-.1-.24.32.32,0,0,0-.2-.06.26.26,0,0,0-.15,0Z"/><path class="p" d="M132.46,30.7c-.07,0-.1,0-.1-.13s-.06-.08-.13-.08a.34.34,0,0,0-.22.12c0,.06,0,.25,0,.36s0,.17,0,.29a.12.12,0,0,1-.13.11s-.08-.06-.08-.11,0-.18,0-.29,0-.17,0-.28,0-.2,0-.25,0-.14.12-.14.1,0,.1.13a.45.45,0,0,1,.26-.09c.18,0,.31,0,.31.26S132.53,30.7,132.46,30.7Z"/><path class="p" d="M133.46,30.23s.08.06.08.11,0,.18,0,.29c0,.42-.1.49-.15.53a.4.4,0,0,1-.33.13.39.39,0,0,1-.38-.39c0-.18,0-.29,0-.45s0-.18.13-.18.09.06.09.11,0,.05,0,.07c0,.17,0,.31,0,.49a.19.19,0,0,0,.18.18.27.27,0,0,0,.23-.11,1.46,1.46,0,0,0,0-.38c0-.11,0-.17,0-.29A.12.12,0,0,1,133.46,30.23Z"/><path class="p" d="M134.51,30.67s-.08,0-.11-.07a.3.3,0,0,0-.17,0c-.13,0-.24.06-.24.14a.09.09,0,0,0,.09.09l.31,0c.12,0,.22.06.22.27s-.28.38-.54.38-.43-.06-.43-.23a.1.1,0,0,1,.11-.12c.1,0,.06.07.11.1a.33.33,0,0,0,.2.07c.17,0,.35-.05.35-.22s0-.06,0-.06h-.29c-.21,0-.27-.11-.27-.26s.2-.32.44-.32.4.08.4.16A.11.11,0,0,1,134.51,30.67Z"/><path class="p" d="M135.53,30.67s-.08,0-.11-.07a.3.3,0,0,0-.17,0c-.13,0-.24.06-.24.14a.09.09,0,0,0,.09.09l.31,0c.12,0,.22.06.22.27s-.28.38-.54.38-.43-.06-.43-.23a.1.1,0,0,1,.11-.12c.1,0,.06.07.11.1a.32.32,0,0,0,.2.07c.17,0,.35-.05.35-.22s0-.06,0-.06h-.29c-.21,0-.27-.11-.27-.26s.2-.32.44-.32.4.08.4.16A.11.11,0,0,1,135.53,30.67Z"/><path class="p" d="M136.1,30.84a.39.39,0,0,1-.19,0,.27.27,0,0,0,0,.06.33.33,0,0,0,.37.35s.12-.07.16-.07.1.08.1.11-.19.12-.34.12a.47.47,0,0,1-.5-.48.53.53,0,0,1,.11-.32.68.68,0,0,1,.51-.31.39.39,0,0,1,.37.34C136.69,30.82,136.38,30.84,136.1,30.84Zm-.11-.19a.29.29,0,0,0,.13,0c.31,0,.35,0,.35-.06a.16.16,0,0,0-.17-.17.41.41,0,0,0-.29.15Z"/><path class="p" d="M137,29.61c.06,0,.12,0,.12.09s0,.49-.06.8,0,.38,0,.53,0,.1,0,.13,0,.12-.13.12-.12,0-.12-.14,0-.39,0-.63.05-.56.05-.79C136.91,29.67,136.92,29.62,137,29.61Z"/><path class="p" d="M138.09,30.67s-.08,0-.11-.07a.3.3,0,0,0-.17,0c-.13,0-.24.06-.24.14a.09.09,0,0,0,.09.09l.31,0c.12,0,.22.06.22.27s-.28.38-.54.38-.43-.06-.43-.23a.1.1,0,0,1,.11-.12c.1,0,.07.07.11.1a.32.32,0,0,0,.2.07c.17,0,.35-.05.35-.22s0-.06,0-.06h-.29c-.21,0-.27-.11-.27-.26s.2-.32.44-.32.41.08.41.16A.11.11,0,0,1,138.09,30.67Z"/><path class="p" d="M139.46,30.83c-.21,0-.32-.07-.32-.27a.33.33,0,0,1,.32-.3.27.27,0,0,1,.29.29A.33.33,0,0,1,139.46,30.83Z"/><path class="p" d="M142.43,31.31a.14.14,0,0,1,0,.07s-.09.08-.15.08-.09-.07-.1-.1a4.41,4.41,0,0,0-.51-1,4,4,0,0,1-.36.93.11.11,0,0,1,0,.06s-.07.06-.11.07-.05.05-.08.05-.14-.06-.14-.1,0-.06,0-.09a5.69,5.69,0,0,1-.34-1.36c0-.09,0-.13.1-.13s.12.07.12.2a5.43,5.43,0,0,0,.27,1.1,2.61,2.61,0,0,0,.31-1s.06-.09.12-.09a.12.12,0,0,1,.1,0,4,4,0,0,1,.54,1c.09-.32.26-.76.28-1s-.08-.14-.08-.17a.1.1,0,0,1,.1-.11.22.22,0,0,1,.19.2A13,13,0,0,1,142.43,31.31Z"/><path class="p" d="M143.69,31.31c-.08,0-.14,0-.14-.12a.48.48,0,0,1,0-.06.5.5,0,0,1-.34.14.45.45,0,0,1-.38-.47.5.5,0,0,1,.54-.53.52.52,0,0,1,.18,0c0-.05.05-.1.1-.1s.14,0,.14.14,0,.4,0,.47,0,.34,0,.42A.09.09,0,0,1,143.69,31.31Zm-.14-.76,0,0s-.07-.09-.13-.09a.33.33,0,0,0-.35.33c0,.13,0,.32.2.32s.32-.26.32-.44Z"/><path class="p" d="M144.18,29.61c.06,0,.12,0,.12.09s0,.49-.05.8,0,.38,0,.53,0,.1,0,.13,0,.12-.13.12-.12,0-.12-.14,0-.39,0-.63.05-.56.05-.79C144.08,29.67,144.09,29.62,144.18,29.61Z"/><path class="p" d="M144.66,29.61c.06,0,.12,0,.12.09s0,.49-.05.8,0,.38,0,.53,0,.1,0,.13,0,.12-.13.12-.12,0-.12-.14,0-.39,0-.63.05-.56.05-.79C144.57,29.67,144.58,29.62,144.66,29.61Z"/><path class="p" d="M145.32,31.32c-.2,0-.38-.08-.4-.41a.39.39,0,0,1,.1-.28.1.1,0,0,1,0-.07c0-.13.3-.21.4-.21a.41.41,0,0,1,.46.39A.55.55,0,0,1,145.32,31.32Zm.06-.79a.27.27,0,0,0-.18.09.07.07,0,0,1,0,.05.15.15,0,0,1,0,.09s-.08.06-.08.12a.54.54,0,0,0,0,.09c0,.13.08.18.18.18a.34.34,0,0,0,.32-.37A.24.24,0,0,0,145.38,30.53Z"/><path class="p" d="M146.82,31.13c0,.17,0,.18-.13.18s-.09-.06-.09-.11,0-.05,0-.07c0-.17,0-.29,0-.47s-.09-.21-.18-.21a.2.2,0,0,0-.18.11s0,.09-.06.1,0,.21,0,.3,0,.18,0,.29a.12.12,0,0,1-.13.11s-.08-.06-.08-.11,0-.17,0-.28,0-.17,0-.29a1.79,1.79,0,0,1,0-.2c0-.1,0-.15.12-.15a.08.08,0,0,1,.08.06.44.44,0,0,1,.28-.1.39.39,0,0,1,.38.38C146.85,30.85,146.82,31,146.82,31.13Z"/><path class="p" d="M147.31,31.33c0,.07,0,.11-.1.11s-.12,0-.12-.09,0-.27,0-.44,0-.38,0-.44.05-.12.11-.12.1,0,.1.14,0,.25,0,.43S147.31,31.21,147.31,31.33Zm-.1-1.26c-.08,0-.1-.08-.1-.17s.06-.2.15-.2a.13.13,0,0,1,.09,0,.2.2,0,0,1-.14.32Z"/><path class="p" d="M148.37,31.31c-.08,0-.14,0-.14-.12a.47.47,0,0,1,0-.06.5.5,0,0,1-.34.14.45.45,0,0,1-.38-.47.5.5,0,0,1,.53-.53.51.51,0,0,1,.18,0c0-.05.05-.1.1-.1s.14,0,.14.14,0,.4,0,.47,0,.34,0,.42A.09.09,0,0,1,148.37,31.31Zm-.13-.76,0,0s-.07-.09-.13-.09a.33.33,0,0,0-.35.33c0,.13,0,.32.2.32s.32-.26.32-.44Z"/><path class="p" d="M35.16,28.89l-1,3.1a.36.36,0,0,1-.34.25h0a.35.35,0,0,1-.34-.25l-.87-2.69L31.74,32a.37.37,0,0,1-.35.25h0a.34.34,0,0,1-.33-.25l-1-3.1a.27.27,0,0,1,0-.07.28.28,0,0,1,.27-.27.29.29,0,0,1,.28.19l.83,2.73.89-2.7a.31.31,0,0,1,.58,0l.89,2.7.83-2.73a.28.28,0,0,1,.27-.19.27.27,0,0,1,.28.27A.27.27,0,0,1,35.16,28.89Z"/><path class="p" d="M40.63,28.89l-1,3.1a.36.36,0,0,1-.34.25h0A.35.35,0,0,1,39,32l-.87-2.69L37.21,32a.37.37,0,0,1-.35.25h0a.34.34,0,0,1-.33-.25l-1-3.1a.26.26,0,0,1,0-.07.28.28,0,0,1,.27-.27.29.29,0,0,1,.28.19l.83,2.73.89-2.7a.31.31,0,0,1,.58,0l.89,2.7.83-2.73a.28.28,0,0,1,.27-.19.27.27,0,0,1,.28.27A.27.27,0,0,1,40.63,28.89Z"/><path class="p" d="M46.1,28.89l-1,3.1a.36.36,0,0,1-.34.25h0a.35.35,0,0,1-.34-.25l-.87-2.69L42.68,32a.37.37,0,0,1-.35.25h0A.34.34,0,0,1,42,32l-1-3.1a.27.27,0,0,1,0-.07.28.28,0,0,1,.27-.27.29.29,0,0,1,.28.19l.83,2.73.89-2.7a.31.31,0,0,1,.58,0l.89,2.7.83-2.73a.28.28,0,0,1,.27-.19.27.27,0,0,1,.28.27A.27.27,0,0,1,46.1,28.89Z"/><path class="p" d="M46.82,32.26a.41.41,0,1,1,.41-.41A.41.41,0,0,1,46.82,32.26Z"/><path class="p" d="M52.63,28.89l-1,3.1a.36.36,0,0,1-.34.25h0a.35.35,0,0,1-.34-.25l-.87-2.69L49.21,32a.37.37,0,0,1-.35.25h0a.34.34,0,0,1-.33-.25l-1-3.1a.26.26,0,0,1,0-.07.28.28,0,0,1,.27-.27.29.29,0,0,1,.28.19l.83,2.73.89-2.7a.31.31,0,0,1,.58,0l.89,2.7.83-2.73a.28.28,0,0,1,.27-.19.27.27,0,0,1,.28.27A.27.27,0,0,1,52.63,28.89Z"/><path class="p" d="M56.08,32.23a.28.28,0,0,1-.28-.28V29.82c0-.63-.33-.82-.81-.82a1.41,1.41,0,0,0-1.07.56V32a.28.28,0,0,1-.56,0V27.44a.28.28,0,0,1,.29-.27.28.28,0,0,1,.27.27v1.67a1.79,1.79,0,0,1,1.29-.61,1,1,0,0,1,1.15,1.15V32A.28.28,0,0,1,56.08,32.23Z"/><path class="p" d="M60.42,28.92l-1.67,4a1.08,1.08,0,0,1-1.06.73c-.19,0-.44,0-.44-.25a.25.25,0,0,1,.25-.25h.19a.52.52,0,0,0,.53-.38l.24-.54-1.37-3.31a.23.23,0,0,1,0-.1.28.28,0,0,1,.28-.28.27.27,0,0,1,.26.17l1.15,2.82,1.14-2.82a.29.29,0,0,1,.55.1A.23.23,0,0,1,60.42,28.92Z"/><path class="p" d="M62.91,32.28a1.52,1.52,0,0,1-1.21-.63V32a.28.28,0,0,1-.56,0V27.44a.28.28,0,0,1,.29-.27.28.28,0,0,1,.27.27v1.69a1.49,1.49,0,0,1,1.21-.63,1.67,1.67,0,0,1,1.6,1.89C64.51,31.56,63.85,32.28,62.91,32.28ZM62.77,29a1.34,1.34,0,0,0-1.07.58v1.63a1.32,1.32,0,0,0,1.07.57c.73,0,1.16-.59,1.16-1.39S63.5,29,62.77,29Z"/><path class="p" d="M68.4,30.57H65.8a1.27,1.27,0,0,0,1.3,1.24,1.56,1.56,0,0,0,1-.34.26.26,0,0,1,.13,0,.24.24,0,0,1,.22.23c0,.39-.93.6-1.37.6A1.89,1.89,0,0,1,67,28.5a1.65,1.65,0,0,1,1.67,1.39,2,2,0,0,1,.05.37A.31.31,0,0,1,68.4,30.57ZM67,29a1.2,1.2,0,0,0-1.18,1.2h2.36A1.17,1.17,0,0,0,67,29Z"/><path class="p" d="M69.89,32.23a.28.28,0,0,1-.28-.28V27.44a.28.28,0,0,1,.29-.27.28.28,0,0,1,.27.27V32A.28.28,0,0,1,69.89,32.23Z"/><path class="p" d="M72.74,33.65a1.92,1.92,0,0,1-1.35-.43.24.24,0,0,1-.08-.19.25.25,0,0,1,.25-.24.23.23,0,0,1,.16.05,1.43,1.43,0,0,0,1,.34A1,1,0,0,0,73.9,32.1v-.51a1.5,1.5,0,0,1-1.21.64,1.64,1.64,0,0,1-1.6-1.86c0-1.15.66-1.87,1.6-1.87a1.49,1.49,0,0,1,1.21.63v-.32a.28.28,0,0,1,.29-.27.28.28,0,0,1,.27.27v3.27C74.45,33.27,73.62,33.65,72.74,33.65Zm1.15-4.07A1.33,1.33,0,0,0,72.82,29c-.72,0-1.15.57-1.15,1.37s.43,1.37,1.15,1.37a1.33,1.33,0,0,0,1.07-.59Z"/><path class="p" d="M76.23,27.7a.38.38,0,0,1-.75,0,.38.38,0,1,1,.75,0Zm-.38,4.53a.28.28,0,0,1-.28-.28V28.81a.28.28,0,0,1,.29-.27.28.28,0,0,1,.27.27V32A.28.28,0,0,1,75.85,32.23Z"/><path class="p" d="M80,32.23a.28.28,0,0,1-.28-.28v-.28a1.76,1.76,0,0,1-1.28.6,1,1,0,0,1-1.15-1.15V28.81a.28.28,0,0,1,.29-.27.28.28,0,0,1,.27.27V31c0,.63.32.82.8.82a1.38,1.38,0,0,0,1.06-.54V28.81a.28.28,0,0,1,.29-.27.28.28,0,0,1,.27.27V32A.28.28,0,0,1,80,32.23Z"/><path class="p" d="M86,32.23A.28.28,0,0,1,85.7,32V29.74c0-.45-.2-.75-.66-.75a1.26,1.26,0,0,0-1,.55V32a.28.28,0,0,1-.56,0V29.74c0-.45-.19-.75-.66-.75a1.26,1.26,0,0,0-.95.56V32a.28.28,0,0,1-.56,0V28.81a.28.28,0,0,1,.29-.27.28.28,0,0,1,.27.27v.3a1.56,1.56,0,0,1,1.16-.61.92.92,0,0,1,1,.67,1.51,1.51,0,0,1,1.21-.67c.66,0,1,.36,1,1.09V32A.28.28,0,0,1,86,32.23Z"/><path class="p" d="M87.68,32.26a.41.41,0,1,1,.41-.41A.41.41,0,0,1,87.68,32.26Z"/><path class="p" d="M91.81,31.81a1.55,1.55,0,0,1-1.18.47,1.89,1.89,0,0,1,0-3.78,1.56,1.56,0,0,1,1.18.47.24.24,0,0,1,.06.16.26.26,0,0,1-.25.25.27.27,0,0,1-.19-.08,1.05,1.05,0,0,0-.77-.3,1.4,1.4,0,0,0,0,2.78,1.06,1.06,0,0,0,.77-.31.28.28,0,0,1,.19-.07.26.26,0,0,1,.26.25A.22.22,0,0,1,91.81,31.81Z"/><path class="p" d="M94.3,32.28a1.89,1.89,0,1,1,1.78-1.89A1.77,1.77,0,0,1,94.3,32.28Zm0-3.28a1.41,1.41,0,1,0,1.19,1.39A1.26,1.26,0,0,0,94.3,29Z"/><path class="p" d="M97.24,32.26a.41.41,0,1,1,.41-.41A.41.41,0,0,1,97.24,32.26Z"/><path class="p" d="M101.36,32.23a.28.28,0,0,1-.28-.28v-.28a1.76,1.76,0,0,1-1.28.6,1,1,0,0,1-1.15-1.15V28.81a.28.28,0,0,1,.29-.27.28.28,0,0,1,.27.27V31c0,.63.32.82.8.82a1.38,1.38,0,0,0,1.07-.54V28.81a.28.28,0,0,1,.29-.27.28.28,0,0,1,.27.27V32A.28.28,0,0,1,101.36,32.23Z"/><path class="p" d="M105.38,32.24a.28.28,0,0,1-.22-.1l-1.25-1.56-.6.59V32a.28.28,0,0,1-.56,0V27.44a.28.28,0,0,1,.29-.27.28.28,0,0,1,.27.27V30.5l1.86-1.89a.26.26,0,0,1,.17-.07.28.28,0,0,1,.26.27.23.23,0,0,1-.07.16l-1.22,1.25,1.27,1.57a.26.26,0,0,1,.06.16A.29.29,0,0,1,105.38,32.24Z"/></svg>